<?xml version="1.0" encoding="UTF-8"?>
<svg xmlns="http://www.w3.org/2000/svg" xmlns:xlink="http://www.w3.org/1999/xlink" width="224pt" height="52pt" viewBox="0 0 224 52" version="1.1">
<g id="surface1">
<path style=" stroke:none;fill-rule:nonzero;fill:rgb(0%,0%,0%);fill-opacity:1;" d="M 13.609375 19.398438 C 13.199219 19.398438 12.878906 19.582031 12.640625 19.941406 C 12.410156 20.300781 12.289062 20.808594 12.289062 21.449219 C 12.289062 22.101562 12.410156 22.601562 12.640625 22.960938 C 12.878906 23.320312 13.199219 23.5 13.609375 23.5 C 14.019531 23.5 14.351562 23.320312 14.582031 22.960938 C 14.820312 22.601562 14.929688 22.101562 14.929688 21.449219 C 14.929688 20.808594 14.820312 20.300781 14.582031 19.941406 C 14.351562 19.582031 14.019531 19.398438 13.609375 19.398438 Z M 10.570312 21.449219 C 10.570312 20.390625 10.851562 19.550781 11.398438 18.929688 C 11.949219 18.308594 12.679688 18.011719 13.609375 18.011719 C 14.539062 18.011719 15.28125 18.308594 15.832031 18.929688 C 16.378906 19.550781 16.648438 20.390625 16.648438 21.449219 C 16.648438 22.511719 16.378906 23.351562 15.832031 23.96875 C 15.28125 24.589844 14.539062 24.898438 13.609375 24.898438 C 12.679688 24.898438 11.949219 24.589844 11.398438 23.96875 C 10.851562 23.351562 10.570312 22.511719 10.570312 21.449219 Z M 19.589844 23.800781 L 19.589844 27.21875 L 17.878906 27.21875 L 17.878906 18.160156 L 19.589844 18.160156 L 19.589844 19.148438 C 19.769531 18.769531 20.011719 18.480469 20.300781 18.289062 C 20.589844 18.101562 20.941406 18.011719 21.332031 18.011719 C 22.082031 18.011719 22.660156 18.308594 23.082031 18.910156 C 23.488281 19.511719 23.699219 20.359375 23.699219 21.449219 C 23.699219 22.558594 23.488281 23.410156 23.070312 24.011719 C 22.648438 24.601562 22.050781 24.898438 21.269531 24.898438 C 20.917969 24.898438 20.601562 24.808594 20.332031 24.621094 C 20.050781 24.441406 19.800781 24.167969 19.589844 23.800781 Z M 21.980469 21.441406 C 21.980469 20.808594 21.878906 20.308594 21.660156 19.949219 C 21.449219 19.589844 21.160156 19.410156 20.789062 19.410156 C 20.417969 19.410156 20.128906 19.589844 19.910156 19.949219 C 19.699219 20.308594 19.589844 20.808594 19.589844 21.441406 C 19.589844 22.070312 19.699219 22.570312 19.910156 22.929688 C 20.128906 23.289062 20.417969 23.46875 20.789062 23.46875 C 21.160156 23.46875 21.449219 23.289062 21.660156 22.929688 C 21.878906 22.570312 21.980469 22.070312 21.980469 21.441406 Z M 28.039062 16.300781 L 28.039062 18.160156 L 30.289062 18.160156 L 30.289062 19.480469 L 28.039062 19.480469 L 28.039062 22.589844 C 28.039062 22.878906 28.109375 23.089844 28.261719 23.21875 C 28.398438 23.339844 28.640625 23.410156 28.96875 23.410156 L 30.289062 23.410156 L 30.289062 24.730469 L 28.851562 24.730469 C 27.859375 24.730469 27.199219 24.570312 26.851562 24.25 C 26.5 23.941406 26.332031 23.359375 26.332031 22.511719 L 26.332031 19.480469 L 24.648438 19.480469 L 24.648438 18.160156 L 26.332031 18.160156 L 26.332031 16.300781 Z M 32.289062 18.160156 L 35.691406 18.160156 L 35.691406 23.410156 L 37.832031 23.410156 L 37.832031 24.730469 L 31.839844 24.730469 L 31.839844 23.410156 L 33.980469 23.410156 L 33.980469 19.480469 L 32.289062 19.480469 Z M 33.980469 14.96875 L 35.691406 14.96875 L 35.691406 16.96875 L 33.980469 16.96875 Z M 41.609375 19.398438 C 41.199219 19.398438 40.878906 19.582031 40.640625 19.941406 C 40.410156 20.300781 40.289062 20.808594 40.289062 21.449219 C 40.289062 22.101562 40.410156 22.601562 40.640625 22.960938 C 40.878906 23.320312 41.199219 23.5 41.609375 23.5 C 42.019531 23.5 42.351562 23.320312 42.582031 22.960938 C 42.820312 22.601562 42.929688 22.101562 42.929688 21.449219 C 42.929688 20.808594 42.820312 20.300781 42.582031 19.941406 C 42.351562 19.582031 42.019531 19.398438 41.609375 19.398438 Z M 38.570312 21.449219 C 38.570312 20.390625 38.851562 19.550781 39.398438 18.929688 C 39.949219 18.308594 40.679688 18.011719 41.609375 18.011719 C 42.539062 18.011719 43.28125 18.308594 43.832031 18.929688 C 44.378906 19.550781 44.648438 20.390625 44.648438 21.449219 C 44.648438 22.511719 44.378906 23.351562 43.832031 23.96875 C 43.28125 24.589844 42.539062 24.898438 41.609375 24.898438 C 40.679688 24.898438 39.949219 24.589844 39.398438 23.96875 C 38.851562 23.351562 38.570312 22.511719 38.570312 21.449219 Z M 51.28125 20.46875 L 51.28125 24.730469 L 49.570312 24.730469 L 49.570312 20.730469 C 49.570312 20.25 49.5 19.910156 49.371094 19.710938 C 49.230469 19.5 49.011719 19.398438 48.710938 19.398438 C 48.398438 19.398438 48.160156 19.539062 47.980469 19.820312 C 47.800781 20.089844 47.710938 20.480469 47.710938 20.96875 L 47.710938 24.730469 L 46.011719 24.730469 L 46.011719 18.160156 L 47.710938 18.160156 L 47.710938 19.148438 C 47.832031 18.78125 48.039062 18.5 48.332031 18.300781 C 48.628906 18.101562 48.980469 18.011719 49.390625 18.011719 C 50.019531 18.011719 50.480469 18.210938 50.800781 18.621094 C 51.121094 19.039062 51.28125 19.648438 51.28125 20.46875 Z M 56.101562 21.640625 C 55.460938 21.640625 55.011719 21.730469 54.761719 21.890625 C 54.511719 22.050781 54.378906 22.339844 54.378906 22.730469 C 54.378906 23.03125 54.46875 23.269531 54.640625 23.441406 C 54.820312 23.621094 55.058594 23.710938 55.359375 23.710938 C 55.808594 23.710938 56.160156 23.539062 56.410156 23.191406 C 56.660156 22.851562 56.789062 22.371094 56.789062 21.761719 L 56.789062 21.640625 Z M 58.488281 20.980469 L 58.488281 24.730469 L 56.789062 24.730469 L 56.789062 23.988281 C 56.582031 24.28125 56.308594 24.511719 55.988281 24.660156 C 55.667969 24.820312 55.308594 24.898438 54.917969 24.898438 C 54.167969 24.898438 53.589844 24.699219 53.167969 24.300781 C 52.761719 23.910156 52.550781 23.359375 52.550781 22.648438 C 52.550781 21.890625 52.800781 21.320312 53.289062 20.960938 C 53.789062 20.589844 54.558594 20.410156 55.601562 20.410156 L 56.789062 20.410156 L 56.789062 20.121094 C 56.789062 19.839844 56.691406 19.628906 56.488281 19.488281 C 56.28125 19.351562 55.988281 19.28125 55.601562 19.28125 C 55.191406 19.28125 54.789062 19.332031 54.410156 19.429688 C 54.019531 19.539062 53.621094 19.699219 53.199219 19.929688 L 53.199219 18.460938 C 53.582031 18.308594 53.960938 18.191406 54.359375 18.121094 C 54.75 18.039062 55.160156 18.011719 55.601562 18.011719 C 56.660156 18.011719 57.410156 18.21875 57.839844 18.660156 C 58.28125 19.089844 58.488281 19.859375 58.488281 20.980469 Z M 61.269531 21.988281 L 61.269531 16.929688 L 59.53125 16.929688 L 59.53125 15.609375 L 62.980469 15.609375 L 62.980469 21.988281 C 62.980469 22.511719 63.058594 22.871094 63.21875 23.089844 C 63.378906 23.300781 63.660156 23.410156 64.039062 23.410156 L 65.410156 23.410156 L 65.410156 24.730469 L 63.558594 24.730469 C 62.738281 24.730469 62.160156 24.519531 61.800781 24.089844 C 61.449219 23.667969 61.269531 22.96875 61.269531 21.988281 "/>
<path style="fill:none;stroke-width:10;stroke-linecap:square;stroke-linejoin:miter;stroke:rgb(0%,0%,0%);stroke-opacity:1;stroke-miterlimit:10;" d="M 860 330 L 1020 330 " transform="matrix(0.1,0,0,-0.1,0,52)"/>
<path style="fill:none;stroke-width:10;stroke-linecap:square;stroke-linejoin:miter;stroke:rgb(0%,0%,0%);stroke-opacity:1;stroke-miterlimit:10;" d="M 1020 330 L 1180 330 " transform="matrix(0.1,0,0,-0.1,0,52)"/>
<path style="fill:none;stroke-width:10;stroke-linecap:square;stroke-linejoin:miter;stroke:rgb(0%,0%,0%);stroke-opacity:1;stroke-miterlimit:10;" d="M 1020 330 L 1020 140 " transform="matrix(0.1,0,0,-0.1,0,52)"/>
<path style="fill:none;stroke-width:10;stroke-linecap:square;stroke-linejoin:miter;stroke:rgb(0%,0%,0%);stroke-opacity:1;stroke-miterlimit:10;" d="M 1060 100 C 1037.890625 100 1020 117.890625 1020 140 " transform="matrix(0.1,0,0,-0.1,0,52)"/>
<path style="fill:none;stroke-width:10;stroke-linecap:square;stroke-linejoin:miter;stroke:rgb(0%,0%,0%);stroke-opacity:1;stroke-miterlimit:10;" d="M 1060 100 L 1180 100 " transform="matrix(0.1,0,0,-0.1,0,52)"/>
<path style="fill:none;stroke-width:10;stroke-linecap:square;stroke-linejoin:miter;stroke:rgb(0%,0%,0%);stroke-opacity:1;stroke-miterlimit:10;" d="M 1180 100 L 1820 100 " transform="matrix(0.1,0,0,-0.1,0,52)"/>
<path style="fill:none;stroke-width:10;stroke-linecap:square;stroke-linejoin:miter;stroke:rgb(0%,0%,0%);stroke-opacity:1;stroke-miterlimit:10;" d="M 1820 100 L 1940 100 " transform="matrix(0.1,0,0,-0.1,0,52)"/>
<path style="fill:none;stroke-width:10;stroke-linecap:square;stroke-linejoin:miter;stroke:rgb(0%,0%,0%);stroke-opacity:1;stroke-miterlimit:10;" d="M 1980 140 C 1980 117.890625 1962.109375 100 1940 100 " transform="matrix(0.1,0,0,-0.1,0,52)"/>
<path style="fill:none;stroke-width:10;stroke-linecap:square;stroke-linejoin:miter;stroke:rgb(0%,0%,0%);stroke-opacity:1;stroke-miterlimit:10;" d="M 1980 140 L 1980 330 " transform="matrix(0.1,0,0,-0.1,0,52)"/>
<path style="fill:none;stroke-width:10;stroke-linecap:square;stroke-linejoin:miter;stroke:rgb(0%,0%,0%);stroke-opacity:1;stroke-miterlimit:10;" d="M 1960 250 L 1980 330 L 2000 250 Z M 1960 250 " transform="matrix(0.1,0,0,-0.1,0,52)"/>
<path style=" stroke:none;fill-rule:nonzero;fill:rgb(0%,0%,0%);fill-opacity:1;" d="M 196 27 L 198 19 L 200 27 "/>
<path style="fill:none;stroke-width:10;stroke-linecap:square;stroke-linejoin:miter;stroke:rgb(0%,0%,0%);stroke-opacity:1;stroke-miterlimit:10;" d="M 1180 330 L 1290 330 " transform="matrix(0.1,0,0,-0.1,0,52)"/>
<path style="fill:none;stroke-width:10;stroke-linecap:square;stroke-linejoin:miter;stroke:rgb(0%,0%,0%);stroke-opacity:1;stroke-miterlimit:10;" d="M 1210 350 L 1290 330 L 1210 310 Z M 1210 350 " transform="matrix(0.1,0,0,-0.1,0,52)"/>
<path style=" stroke:none;fill-rule:nonzero;fill:rgb(0%,0%,0%);fill-opacity:1;" d="M 121 17 L 129 19 L 121 21 "/>
<path style=" stroke:none;fill-rule:nonzero;fill:rgb(100%,100%,100%);fill-opacity:1;" d="M 129 10 L 171 10 L 171 29 L 129 29 L 129 10 "/>
<path style="fill:none;stroke-width:10;stroke-linecap:square;stroke-linejoin:miter;stroke:rgb(0%,0%,0%);stroke-opacity:1;stroke-miterlimit:10;" d="M 1290 420 L 1710 420 L 1710 230 L 1290 230 Z M 1290 420 " transform="matrix(0.1,0,0,-0.1,0,52)"/>
<path style="fill:none;stroke-width:10;stroke-linecap:square;stroke-linejoin:miter;stroke:rgb(0%,0%,0%);stroke-opacity:1;stroke-miterlimit:10;" d="M 1720 330 L 1820 330 " transform="matrix(0.1,0,0,-0.1,0,52)"/>
<path style=" stroke:none;fill-rule:nonzero;fill:rgb(0%,0%,50%);fill-opacity:1;" d="M 152.191406 22.96875 L 150.460938 22.96875 L 150.460938 15.738281 L 148.238281 15.738281 L 148.238281 14.230469 L 154.410156 14.230469 L 154.410156 15.738281 L 152.191406 15.738281 "/>
<path style="fill:none;stroke-width:10;stroke-linecap:square;stroke-linejoin:miter;stroke:rgb(0%,0%,0%);stroke-opacity:1;stroke-miterlimit:10;" d="M 1820 330 L 1980 330 " transform="matrix(0.1,0,0,-0.1,0,52)"/>
<path style="fill:none;stroke-width:10;stroke-linecap:square;stroke-linejoin:miter;stroke:rgb(0%,0%,0%);stroke-opacity:1;stroke-miterlimit:10;" d="M 1980 330 L 2140 330 " transform="matrix(0.1,0,0,-0.1,0,52)"/>
<path style="fill:none;stroke-width:10;stroke-linecap:square;stroke-linejoin:miter;stroke:rgb(0%,0%,0%);stroke-opacity:1;stroke-miterlimit:10;" d="M 2060 350 L 2140 330 L 2060 310 Z M 2060 350 " transform="matrix(0.1,0,0,-0.1,0,52)"/>
<path style=" stroke:none;fill-rule:nonzero;fill:rgb(0%,0%,0%);fill-opacity:1;" d="M 206 17 L 214 19 L 206 21 "/>
</g>
</svg>
