<?xml version="1.0" encoding="UTF-8"?>
<svg xmlns="http://www.w3.org/2000/svg" xmlns:xlink="http://www.w3.org/1999/xlink" width="279pt" height="64pt" viewBox="0 0 279 64" version="1.1">
<g id="surface1">
<path style=" stroke:none;fill-rule:nonzero;fill:rgb(0%,0%,0%);fill-opacity:1;" d="M 11.089844 29.339844 L 16.332031 29.339844 L 16.332031 30.679688 L 12.878906 34.621094 L 16.332031 34.621094 L 16.332031 35.898438 L 10.949219 35.898438 L 10.949219 34.558594 L 14.410156 30.621094 L 11.089844 30.621094 Z M 23.460938 35.582031 C 23.058594 35.738281 22.648438 35.871094 22.238281 35.949219 C 21.820312 36.03125 21.390625 36.070312 20.929688 36.070312 C 19.832031 36.070312 18.988281 35.78125 18.410156 35.191406 C 17.832031 34.601562 17.539062 33.761719 17.539062 32.648438 C 17.539062 31.582031 17.820312 30.730469 18.378906 30.109375 C 18.941406 29.488281 19.699219 29.179688 20.660156 29.179688 C 21.628906 29.179688 22.390625 29.46875 22.929688 30.050781 C 23.460938 30.621094 23.730469 31.429688 23.730469 32.480469 L 23.730469 33.179688 L 19.289062 33.179688 C 19.289062 33.691406 19.441406 34.082031 19.738281 34.332031 C 20.039062 34.589844 20.488281 34.710938 21.089844 34.710938 C 21.480469 34.710938 21.871094 34.660156 22.261719 34.539062 C 22.640625 34.429688 23.039062 34.25 23.460938 34 Z M 22 31.890625 C 22 31.441406 21.878906 31.089844 21.660156 30.859375 C 21.429688 30.628906 21.101562 30.511719 20.660156 30.511719 C 20.269531 30.511719 19.949219 30.628906 19.71875 30.871094 C 19.480469 31.109375 19.351562 31.449219 19.300781 31.898438 Z M 30.738281 31.148438 C 30.558594 30.980469 30.339844 30.851562 30.082031 30.761719 C 29.832031 30.679688 29.558594 30.640625 29.261719 30.640625 C 28.890625 30.640625 28.582031 30.699219 28.300781 30.832031 C 28.03125 30.949219 27.820312 31.140625 27.667969 31.378906 C 27.582031 31.53125 27.511719 31.710938 27.480469 31.917969 C 27.441406 32.128906 27.417969 32.449219 27.417969 32.878906 L 27.417969 35.898438 L 25.710938 35.898438 L 25.710938 29.339844 L 27.417969 29.339844 L 27.417969 30.359375 C 27.589844 29.980469 27.851562 29.691406 28.199219 29.488281 C 28.539062 29.28125 28.949219 29.179688 29.410156 29.179688 C 29.648438 29.179688 29.878906 29.210938 30.101562 29.269531 C 30.332031 29.320312 30.539062 29.410156 30.738281 29.519531 Z M 34.609375 30.582031 C 34.199219 30.582031 33.878906 30.761719 33.640625 31.121094 C 33.410156 31.480469 33.289062 31.980469 33.289062 32.628906 C 33.289062 33.269531 33.410156 33.78125 33.640625 34.140625 C 33.878906 34.5 34.199219 34.679688 34.609375 34.679688 C 35.019531 34.679688 35.351562 34.5 35.582031 34.140625 C 35.820312 33.78125 35.929688 33.269531 35.929688 32.628906 C 35.929688 31.980469 35.820312 31.480469 35.582031 31.121094 C 35.351562 30.761719 35.019531 30.582031 34.609375 30.582031 Z M 31.570312 32.628906 C 31.570312 31.570312 31.851562 30.730469 32.398438 30.109375 C 32.949219 29.488281 33.679688 29.179688 34.609375 29.179688 C 35.539062 29.179688 36.28125 29.488281 36.832031 30.109375 C 37.378906 30.730469 37.648438 31.570312 37.648438 32.628906 C 37.648438 33.691406 37.378906 34.53125 36.832031 35.140625 C 36.28125 35.761719 35.539062 36.070312 34.609375 36.070312 C 33.679688 36.070312 32.949219 35.761719 32.398438 35.140625 C 31.851562 34.53125 31.570312 33.691406 31.570312 32.628906 Z M 45.21875 38.191406 L 38 38.191406 L 38 37.019531 L 45.21875 37.019531 Z M 48.609375 30.582031 C 48.199219 30.582031 47.878906 30.761719 47.640625 31.121094 C 47.410156 31.480469 47.289062 31.980469 47.289062 32.628906 C 47.289062 33.269531 47.410156 33.78125 47.640625 34.140625 C 47.878906 34.5 48.199219 34.679688 48.609375 34.679688 C 49.019531 34.679688 49.351562 34.5 49.582031 34.140625 C 49.820312 33.78125 49.929688 33.269531 49.929688 32.628906 C 49.929688 31.980469 49.820312 31.480469 49.582031 31.121094 C 49.351562 30.761719 49.019531 30.582031 48.609375 30.582031 Z M 45.570312 32.628906 C 45.570312 31.570312 45.851562 30.730469 46.398438 30.109375 C 46.949219 29.488281 47.679688 29.179688 48.609375 29.179688 C 49.539062 29.179688 50.28125 29.488281 50.832031 30.109375 C 51.378906 30.730469 51.648438 31.570312 51.648438 32.628906 C 51.648438 33.691406 51.378906 34.53125 50.832031 35.140625 C 50.28125 35.761719 49.539062 36.070312 48.609375 36.070312 C 47.679688 36.070312 46.949219 35.761719 46.398438 35.140625 C 45.851562 34.53125 45.570312 33.691406 45.570312 32.628906 Z M 58.738281 31.148438 C 58.558594 30.980469 58.339844 30.851562 58.082031 30.761719 C 57.832031 30.679688 57.558594 30.640625 57.261719 30.640625 C 56.890625 30.640625 56.582031 30.699219 56.300781 30.832031 C 56.03125 30.949219 55.820312 31.140625 55.667969 31.378906 C 55.582031 31.53125 55.511719 31.710938 55.480469 31.917969 C 55.441406 32.128906 55.417969 32.449219 55.417969 32.878906 L 55.417969 35.898438 L 53.710938 35.898438 L 53.710938 29.339844 L 55.417969 29.339844 L 55.417969 30.359375 C 55.589844 29.980469 55.851562 29.691406 56.199219 29.488281 C 56.539062 29.28125 56.949219 29.179688 57.410156 29.179688 C 57.648438 29.179688 57.878906 29.210938 58.101562 29.269531 C 58.332031 29.320312 58.539062 29.410156 58.738281 29.519531 Z M 66.21875 38.191406 L 59 38.191406 L 59 37.019531 L 66.21875 37.019531 Z M 70.039062 30 C 70.167969 29.71875 70.339844 29.511719 70.539062 29.378906 C 70.730469 29.25 70.980469 29.179688 71.269531 29.179688 C 71.832031 29.179688 72.230469 29.378906 72.441406 29.769531 C 72.660156 30.160156 72.769531 30.96875 72.769531 32.210938 L 72.769531 35.898438 L 71.359375 35.898438 L 71.359375 31.691406 C 71.359375 31.199219 71.320312 30.878906 71.25 30.710938 C 71.179688 30.550781 71.039062 30.46875 70.851562 30.46875 C 70.648438 30.46875 70.511719 30.550781 70.441406 30.71875 C 70.359375 30.890625 70.320312 31.210938 70.320312 31.691406 L 70.320312 35.898438 L 68.929688 35.898438 L 68.929688 31.691406 C 68.929688 31.210938 68.890625 30.890625 68.808594 30.71875 C 68.730469 30.550781 68.601562 30.46875 68.398438 30.46875 C 68.210938 30.46875 68.070312 30.550781 68 30.710938 C 67.917969 30.878906 67.890625 31.199219 67.890625 31.691406 L 67.890625 35.898438 L 66.480469 35.898438 L 66.480469 29.339844 L 67.730469 29.339844 L 67.730469 30.019531 C 67.832031 29.761719 67.980469 29.558594 68.199219 29.410156 C 68.410156 29.261719 68.648438 29.179688 68.917969 29.179688 C 69.179688 29.179688 69.429688 29.261719 69.640625 29.417969 C 69.859375 29.582031 70 29.769531 70.039062 30 Z M 76.609375 30.582031 C 76.199219 30.582031 75.878906 30.761719 75.640625 31.121094 C 75.410156 31.480469 75.289062 31.980469 75.289062 32.628906 C 75.289062 33.269531 75.410156 33.78125 75.640625 34.140625 C 75.878906 34.5 76.199219 34.679688 76.609375 34.679688 C 77.019531 34.679688 77.351562 34.5 77.582031 34.140625 C 77.820312 33.78125 77.929688 33.269531 77.929688 32.628906 C 77.929688 31.980469 77.820312 31.480469 77.582031 31.121094 C 77.351562 30.761719 77.019531 30.582031 76.609375 30.582031 Z M 73.570312 32.628906 C 73.570312 31.570312 73.851562 30.730469 74.398438 30.109375 C 74.949219 29.488281 75.679688 29.179688 76.609375 29.179688 C 77.539062 29.179688 78.28125 29.488281 78.832031 30.109375 C 79.378906 30.730469 79.648438 31.570312 79.648438 32.628906 C 79.648438 33.691406 79.378906 34.53125 78.832031 35.140625 C 78.28125 35.761719 77.539062 36.070312 76.609375 36.070312 C 75.679688 36.070312 74.949219 35.761719 74.398438 35.140625 C 73.851562 34.53125 73.570312 33.691406 73.570312 32.628906 Z M 86.738281 31.148438 C 86.558594 30.980469 86.339844 30.851562 86.082031 30.761719 C 85.832031 30.679688 85.558594 30.640625 85.261719 30.640625 C 84.890625 30.640625 84.582031 30.699219 84.300781 30.832031 C 84.03125 30.949219 83.820312 31.140625 83.667969 31.378906 C 83.582031 31.53125 83.511719 31.710938 83.480469 31.917969 C 83.441406 32.128906 83.417969 32.449219 83.417969 32.878906 L 83.417969 35.898438 L 81.710938 35.898438 L 81.710938 29.339844 L 83.417969 29.339844 L 83.417969 30.359375 C 83.589844 29.980469 83.851562 29.691406 84.199219 29.488281 C 84.539062 29.28125 84.949219 29.179688 85.410156 29.179688 C 85.648438 29.179688 85.878906 29.210938 86.101562 29.269531 C 86.332031 29.320312 86.539062 29.410156 86.738281 29.519531 Z M 93.460938 35.582031 C 93.058594 35.738281 92.648438 35.871094 92.238281 35.949219 C 91.820312 36.03125 91.390625 36.070312 90.929688 36.070312 C 89.832031 36.070312 88.988281 35.78125 88.410156 35.191406 C 87.832031 34.601562 87.539062 33.761719 87.539062 32.648438 C 87.539062 31.582031 87.820312 30.730469 88.378906 30.109375 C 88.941406 29.488281 89.699219 29.179688 90.660156 29.179688 C 91.628906 29.179688 92.390625 29.46875 92.929688 30.050781 C 93.460938 30.621094 93.730469 31.429688 93.730469 32.480469 L 93.730469 33.179688 L 89.289062 33.179688 C 89.289062 33.691406 89.441406 34.082031 89.738281 34.332031 C 90.039062 34.589844 90.488281 34.710938 91.089844 34.710938 C 91.480469 34.710938 91.871094 34.660156 92.261719 34.539062 C 92.640625 34.429688 93.039062 34.25 93.460938 34 Z M 92 31.890625 C 92 31.441406 91.878906 31.089844 91.660156 30.859375 C 91.429688 30.628906 91.101562 30.511719 90.660156 30.511719 C 90.269531 30.511719 89.949219 30.628906 89.71875 30.871094 C 89.480469 31.109375 89.351562 31.449219 89.300781 31.898438 "/>
<path style="fill:none;stroke-width:10;stroke-linecap:square;stroke-linejoin:miter;stroke:rgb(0%,0%,0%);stroke-opacity:1;stroke-miterlimit:10;" d="M 1250 320 L 1410 320 " transform="matrix(0.1,0,0,-0.1,0,64)"/>
<path style="fill:none;stroke-width:10;stroke-linecap:square;stroke-linejoin:miter;stroke:rgb(0%,0%,0%);stroke-opacity:1;stroke-miterlimit:10;" d="M 1410 320 L 1570 320 " transform="matrix(0.1,0,0,-0.1,0,64)"/>
<path style="fill:none;stroke-width:10;stroke-linecap:square;stroke-linejoin:miter;stroke:rgb(0%,0%,0%);stroke-opacity:1;stroke-miterlimit:10;" d="M 1410 320 L 1410 140 " transform="matrix(0.1,0,0,-0.1,0,64)"/>
<path style="fill:none;stroke-width:10;stroke-linecap:square;stroke-linejoin:miter;stroke:rgb(0%,0%,0%);stroke-opacity:1;stroke-miterlimit:10;" d="M 1450 100 C 1427.890625 100 1410 117.890625 1410 140 " transform="matrix(0.1,0,0,-0.1,0,64)"/>
<path style="fill:none;stroke-width:10;stroke-linecap:square;stroke-linejoin:miter;stroke:rgb(0%,0%,0%);stroke-opacity:1;stroke-miterlimit:10;" d="M 1450 100 L 1570 100 " transform="matrix(0.1,0,0,-0.1,0,64)"/>
<path style="fill:none;stroke-width:10;stroke-linecap:square;stroke-linejoin:miter;stroke:rgb(0%,0%,0%);stroke-opacity:1;stroke-miterlimit:10;" d="M 1570 100 L 2370 100 " transform="matrix(0.1,0,0,-0.1,0,64)"/>
<path style="fill:none;stroke-width:10;stroke-linecap:square;stroke-linejoin:miter;stroke:rgb(0%,0%,0%);stroke-opacity:1;stroke-miterlimit:10;" d="M 2370 100 L 2490 100 " transform="matrix(0.1,0,0,-0.1,0,64)"/>
<path style="fill:none;stroke-width:10;stroke-linecap:square;stroke-linejoin:miter;stroke:rgb(0%,0%,0%);stroke-opacity:1;stroke-miterlimit:10;" d="M 2530 140 C 2530 117.890625 2512.109375 100 2490 100 " transform="matrix(0.1,0,0,-0.1,0,64)"/>
<path style="fill:none;stroke-width:10;stroke-linecap:square;stroke-linejoin:miter;stroke:rgb(0%,0%,0%);stroke-opacity:1;stroke-miterlimit:10;" d="M 2530 140 L 2530 320 " transform="matrix(0.1,0,0,-0.1,0,64)"/>
<path style="fill:none;stroke-width:10;stroke-linecap:square;stroke-linejoin:miter;stroke:rgb(0%,0%,0%);stroke-opacity:1;stroke-miterlimit:10;" d="M 2510 240 L 2530 320 L 2550 240 Z M 2510 240 " transform="matrix(0.1,0,0,-0.1,0,64)"/>
<path style=" stroke:none;fill-rule:nonzero;fill:rgb(0%,0%,0%);fill-opacity:1;" d="M 251 40 L 253 32 L 255 40 "/>
<path style="fill:none;stroke-width:10;stroke-linecap:square;stroke-linejoin:miter;stroke:rgb(0%,0%,0%);stroke-opacity:1;stroke-miterlimit:10;" d="M 1570 320 L 1730 320 " transform="matrix(0.1,0,0,-0.1,0,64)"/>
<path style="fill:none;stroke-width:10;stroke-linecap:square;stroke-linejoin:miter;stroke:rgb(0%,0%,0%);stroke-opacity:1;stroke-miterlimit:10;" d="M 1570 320 L 1570 500 " transform="matrix(0.1,0,0,-0.1,0,64)"/>
<path style="fill:none;stroke-width:10;stroke-linecap:square;stroke-linejoin:miter;stroke:rgb(0%,0%,0%);stroke-opacity:1;stroke-miterlimit:10;" d="M 1610 540 C 1587.890625 540 1570 522.109375 1570 500 " transform="matrix(0.1,0,0,-0.1,0,64)"/>
<path style="fill:none;stroke-width:10;stroke-linecap:square;stroke-linejoin:miter;stroke:rgb(0%,0%,0%);stroke-opacity:1;stroke-miterlimit:10;" d="M 1610 540 L 1730 540 " transform="matrix(0.1,0,0,-0.1,0,64)"/>
<path style="fill:none;stroke-width:10;stroke-linecap:square;stroke-linejoin:miter;stroke:rgb(0%,0%,0%);stroke-opacity:1;stroke-miterlimit:10;" d="M 1550 400 L 1570 320 L 1590 400 Z M 1550 400 " transform="matrix(0.1,0,0,-0.1,0,64)"/>
<path style=" stroke:none;fill-rule:nonzero;fill:rgb(0%,0%,0%);fill-opacity:1;" d="M 155 24 L 157 32 L 159 24 "/>
<path style="fill:none;stroke-width:10;stroke-linecap:square;stroke-linejoin:miter;stroke:rgb(0%,0%,0%);stroke-opacity:1;stroke-miterlimit:10;" d="M 1730 540 L 2210 540 " transform="matrix(0.1,0,0,-0.1,0,64)"/>
<path style="fill:none;stroke-width:10;stroke-linecap:square;stroke-linejoin:miter;stroke:rgb(0%,0%,0%);stroke-opacity:1;stroke-miterlimit:10;" d="M 2210 540 L 2330 540 " transform="matrix(0.1,0,0,-0.1,0,64)"/>
<path style="fill:none;stroke-width:10;stroke-linecap:square;stroke-linejoin:miter;stroke:rgb(0%,0%,0%);stroke-opacity:1;stroke-miterlimit:10;" d="M 2370 500 C 2370 522.109375 2352.109375 540 2330 540 " transform="matrix(0.1,0,0,-0.1,0,64)"/>
<path style="fill:none;stroke-width:10;stroke-linecap:square;stroke-linejoin:miter;stroke:rgb(0%,0%,0%);stroke-opacity:1;stroke-miterlimit:10;" d="M 2370 500 L 2370 320 " transform="matrix(0.1,0,0,-0.1,0,64)"/>
<path style="fill:none;stroke-width:10;stroke-linecap:square;stroke-linejoin:miter;stroke:rgb(0%,0%,0%);stroke-opacity:1;stroke-miterlimit:10;" d="M 1730 320 L 1830 320 " transform="matrix(0.1,0,0,-0.1,0,64)"/>
<path style="fill:none;stroke-width:10;stroke-linecap:square;stroke-linejoin:miter;stroke:rgb(0%,0%,0%);stroke-opacity:1;stroke-miterlimit:10;" d="M 1750 340 L 1830 320 L 1750 300 Z M 1750 340 " transform="matrix(0.1,0,0,-0.1,0,64)"/>
<path style=" stroke:none;fill-rule:nonzero;fill:rgb(0%,0%,0%);fill-opacity:1;" d="M 175 30 L 183 32 L 175 34 "/>
<path style=" stroke:none;fill-rule:nonzero;fill:rgb(100%,100%,100%);fill-opacity:1;" d="M 183 22 L 225 22 L 225 41 L 183 41 L 183 22 "/>
<path style="fill:none;stroke-width:10;stroke-linecap:square;stroke-linejoin:miter;stroke:rgb(0%,0%,0%);stroke-opacity:1;stroke-miterlimit:10;" d="M 1830 420 L 2250 420 L 2250 230 L 1830 230 Z M 1830 420 " transform="matrix(0.1,0,0,-0.1,0,64)"/>
<path style="fill:none;stroke-width:10;stroke-linecap:square;stroke-linejoin:miter;stroke:rgb(0%,0%,0%);stroke-opacity:1;stroke-miterlimit:10;" d="M 2260 320 L 2370 320 " transform="matrix(0.1,0,0,-0.1,0,64)"/>
<path style=" stroke:none;fill-rule:nonzero;fill:rgb(0%,0%,50%);fill-opacity:1;" d="M 206.589844 35.769531 L 204.859375 35.769531 L 204.859375 28.539062 L 202.640625 28.539062 L 202.640625 27.03125 L 208.808594 27.03125 L 208.808594 28.539062 L 206.589844 28.539062 "/>
<path style="fill:none;stroke-width:10;stroke-linecap:square;stroke-linejoin:miter;stroke:rgb(0%,0%,0%);stroke-opacity:1;stroke-miterlimit:10;" d="M 2370 320 L 2530 320 " transform="matrix(0.1,0,0,-0.1,0,64)"/>
<path style="fill:none;stroke-width:10;stroke-linecap:square;stroke-linejoin:miter;stroke:rgb(0%,0%,0%);stroke-opacity:1;stroke-miterlimit:10;" d="M 2530 320 L 2690 320 " transform="matrix(0.1,0,0,-0.1,0,64)"/>
<path style="fill:none;stroke-width:10;stroke-linecap:square;stroke-linejoin:miter;stroke:rgb(0%,0%,0%);stroke-opacity:1;stroke-miterlimit:10;" d="M 2610 340 L 2690 320 L 2610 300 Z M 2610 340 " transform="matrix(0.1,0,0,-0.1,0,64)"/>
<path style=" stroke:none;fill-rule:nonzero;fill:rgb(0%,0%,0%);fill-opacity:1;" d="M 261 30 L 269 32 L 261 34 "/>
</g>
</svg>
