<?xml version="1.0" encoding="UTF-8"?>
<svg xmlns="http://www.w3.org/2000/svg" xmlns:xlink="http://www.w3.org/1999/xlink" width="237pt" height="51pt" viewBox="0 0 237 51" version="1.1">
<g id="surface1">
<path style=" stroke:none;fill-rule:nonzero;fill:rgb(0%,0%,0%);fill-opacity:1;" d="M 13.609375 30.582031 C 13.199219 30.582031 12.878906 30.761719 12.640625 31.121094 C 12.410156 31.480469 12.289062 31.980469 12.289062 32.628906 C 12.289062 33.269531 12.410156 33.78125 12.640625 34.140625 C 12.878906 34.5 13.199219 34.679688 13.609375 34.679688 C 14.019531 34.679688 14.351562 34.5 14.582031 34.140625 C 14.820312 33.78125 14.929688 33.269531 14.929688 32.628906 C 14.929688 31.980469 14.820312 31.480469 14.582031 31.121094 C 14.351562 30.761719 14.019531 30.582031 13.609375 30.582031 Z M 10.570312 32.628906 C 10.570312 31.570312 10.851562 30.730469 11.398438 30.109375 C 11.949219 29.488281 12.679688 29.179688 13.609375 29.179688 C 14.539062 29.179688 15.28125 29.488281 15.832031 30.109375 C 16.378906 30.730469 16.648438 31.570312 16.648438 32.628906 C 16.648438 33.691406 16.378906 34.53125 15.832031 35.140625 C 15.28125 35.761719 14.539062 36.070312 13.609375 36.070312 C 12.679688 36.070312 11.949219 35.761719 11.398438 35.140625 C 10.851562 34.53125 10.570312 33.691406 10.570312 32.628906 Z M 23.28125 31.640625 L 23.28125 35.898438 L 21.570312 35.898438 L 21.570312 31.910156 C 21.570312 31.429688 21.5 31.089844 21.371094 30.878906 C 21.230469 30.679688 21.011719 30.582031 20.710938 30.582031 C 20.398438 30.582031 20.160156 30.71875 19.980469 30.988281 C 19.800781 31.269531 19.710938 31.648438 19.710938 32.148438 L 19.710938 35.898438 L 18.011719 35.898438 L 18.011719 29.339844 L 19.710938 29.339844 L 19.710938 30.320312 C 19.832031 29.960938 20.039062 29.679688 20.332031 29.480469 C 20.628906 29.28125 20.980469 29.179688 21.390625 29.179688 C 22.019531 29.179688 22.480469 29.390625 22.800781 29.800781 C 23.121094 30.210938 23.28125 30.832031 23.28125 31.640625 Z M 30.460938 35.582031 C 30.058594 35.738281 29.648438 35.871094 29.238281 35.949219 C 28.820312 36.03125 28.390625 36.070312 27.929688 36.070312 C 26.832031 36.070312 25.988281 35.78125 25.410156 35.191406 C 24.832031 34.601562 24.539062 33.761719 24.539062 32.648438 C 24.539062 31.582031 24.820312 30.730469 25.378906 30.109375 C 25.941406 29.488281 26.699219 29.179688 27.660156 29.179688 C 28.628906 29.179688 29.390625 29.46875 29.929688 30.050781 C 30.460938 30.621094 30.730469 31.429688 30.730469 32.480469 L 30.730469 33.179688 L 26.289062 33.179688 C 26.289062 33.691406 26.441406 34.082031 26.738281 34.332031 C 27.039062 34.589844 27.488281 34.710938 28.089844 34.710938 C 28.480469 34.710938 28.871094 34.660156 29.261719 34.539062 C 29.640625 34.429688 30.039062 34.25 30.460938 34 Z M 29 31.890625 C 29 31.441406 28.878906 31.089844 28.660156 30.859375 C 28.429688 30.628906 28.101562 30.511719 27.660156 30.511719 C 27.269531 30.511719 26.949219 30.628906 26.71875 30.871094 C 26.480469 31.109375 26.351562 31.449219 26.300781 31.898438 Z M 38.21875 38.191406 L 31 38.191406 L 31 37.019531 L 38.21875 37.019531 Z M 41.609375 30.582031 C 41.199219 30.582031 40.878906 30.761719 40.640625 31.121094 C 40.410156 31.480469 40.289062 31.980469 40.289062 32.628906 C 40.289062 33.269531 40.410156 33.78125 40.640625 34.140625 C 40.878906 34.5 41.199219 34.679688 41.609375 34.679688 C 42.019531 34.679688 42.351562 34.5 42.582031 34.140625 C 42.820312 33.78125 42.929688 33.269531 42.929688 32.628906 C 42.929688 31.980469 42.820312 31.480469 42.582031 31.121094 C 42.351562 30.761719 42.019531 30.582031 41.609375 30.582031 Z M 38.570312 32.628906 C 38.570312 31.570312 38.851562 30.730469 39.398438 30.109375 C 39.949219 29.488281 40.679688 29.179688 41.609375 29.179688 C 42.539062 29.179688 43.28125 29.488281 43.832031 30.109375 C 44.378906 30.730469 44.648438 31.570312 44.648438 32.628906 C 44.648438 33.691406 44.378906 34.53125 43.832031 35.140625 C 43.28125 35.761719 42.539062 36.070312 41.609375 36.070312 C 40.679688 36.070312 39.949219 35.761719 39.398438 35.140625 C 38.851562 34.53125 38.570312 33.691406 38.570312 32.628906 Z M 51.738281 31.148438 C 51.558594 30.980469 51.339844 30.851562 51.082031 30.761719 C 50.832031 30.679688 50.558594 30.640625 50.261719 30.640625 C 49.890625 30.640625 49.582031 30.699219 49.300781 30.832031 C 49.03125 30.949219 48.820312 31.140625 48.667969 31.378906 C 48.582031 31.53125 48.511719 31.710938 48.480469 31.917969 C 48.441406 32.128906 48.417969 32.449219 48.417969 32.878906 L 48.417969 35.898438 L 46.710938 35.898438 L 46.710938 29.339844 L 48.417969 29.339844 L 48.417969 30.359375 C 48.589844 29.980469 48.851562 29.691406 49.199219 29.488281 C 49.539062 29.28125 49.949219 29.179688 50.410156 29.179688 C 50.648438 29.179688 50.878906 29.210938 51.101562 29.269531 C 51.332031 29.320312 51.539062 29.410156 51.738281 29.519531 Z M 59.21875 38.191406 L 52 38.191406 L 52 37.019531 L 59.21875 37.019531 Z M 63.039062 30 C 63.167969 29.71875 63.339844 29.511719 63.539062 29.378906 C 63.730469 29.25 63.980469 29.179688 64.269531 29.179688 C 64.832031 29.179688 65.230469 29.378906 65.441406 29.769531 C 65.660156 30.160156 65.769531 30.96875 65.769531 32.210938 L 65.769531 35.898438 L 64.359375 35.898438 L 64.359375 31.691406 C 64.359375 31.199219 64.320312 30.878906 64.25 30.710938 C 64.179688 30.550781 64.039062 30.46875 63.851562 30.46875 C 63.648438 30.46875 63.511719 30.550781 63.441406 30.71875 C 63.359375 30.890625 63.320312 31.210938 63.320312 31.691406 L 63.320312 35.898438 L 61.929688 35.898438 L 61.929688 31.691406 C 61.929688 31.210938 61.890625 30.890625 61.808594 30.71875 C 61.730469 30.550781 61.601562 30.46875 61.398438 30.46875 C 61.210938 30.46875 61.070312 30.550781 61 30.710938 C 60.917969 30.878906 60.890625 31.199219 60.890625 31.691406 L 60.890625 35.898438 L 59.480469 35.898438 L 59.480469 29.339844 L 60.730469 29.339844 L 60.730469 30.019531 C 60.832031 29.761719 60.980469 29.558594 61.199219 29.410156 C 61.410156 29.261719 61.648438 29.179688 61.917969 29.179688 C 62.179688 29.179688 62.429688 29.261719 62.640625 29.417969 C 62.859375 29.582031 63 29.769531 63.039062 30 Z M 69.609375 30.582031 C 69.199219 30.582031 68.878906 30.761719 68.640625 31.121094 C 68.410156 31.480469 68.289062 31.980469 68.289062 32.628906 C 68.289062 33.269531 68.410156 33.78125 68.640625 34.140625 C 68.878906 34.5 69.199219 34.679688 69.609375 34.679688 C 70.019531 34.679688 70.351562 34.5 70.582031 34.140625 C 70.820312 33.78125 70.929688 33.269531 70.929688 32.628906 C 70.929688 31.980469 70.820312 31.480469 70.582031 31.121094 C 70.351562 30.761719 70.019531 30.582031 69.609375 30.582031 Z M 66.570312 32.628906 C 66.570312 31.570312 66.851562 30.730469 67.398438 30.109375 C 67.949219 29.488281 68.679688 29.179688 69.609375 29.179688 C 70.539062 29.179688 71.28125 29.488281 71.832031 30.109375 C 72.378906 30.730469 72.648438 31.570312 72.648438 32.628906 C 72.648438 33.691406 72.378906 34.53125 71.832031 35.140625 C 71.28125 35.761719 70.539062 36.070312 69.609375 36.070312 C 68.679688 36.070312 67.949219 35.761719 67.398438 35.140625 C 66.851562 34.53125 66.570312 33.691406 66.570312 32.628906 Z M 79.738281 31.148438 C 79.558594 30.980469 79.339844 30.851562 79.082031 30.761719 C 78.832031 30.679688 78.558594 30.640625 78.261719 30.640625 C 77.890625 30.640625 77.582031 30.699219 77.300781 30.832031 C 77.03125 30.949219 76.820312 31.140625 76.667969 31.378906 C 76.582031 31.53125 76.511719 31.710938 76.480469 31.917969 C 76.441406 32.128906 76.417969 32.449219 76.417969 32.878906 L 76.417969 35.898438 L 74.710938 35.898438 L 74.710938 29.339844 L 76.417969 29.339844 L 76.417969 30.359375 C 76.589844 29.980469 76.851562 29.691406 77.199219 29.488281 C 77.539062 29.28125 77.949219 29.179688 78.410156 29.179688 C 78.648438 29.179688 78.878906 29.210938 79.101562 29.269531 C 79.332031 29.320312 79.539062 29.410156 79.738281 29.519531 Z M 86.460938 35.582031 C 86.058594 35.738281 85.648438 35.871094 85.238281 35.949219 C 84.820312 36.03125 84.390625 36.070312 83.929688 36.070312 C 82.832031 36.070312 81.988281 35.78125 81.410156 35.191406 C 80.832031 34.601562 80.539062 33.761719 80.539062 32.648438 C 80.539062 31.582031 80.820312 30.730469 81.378906 30.109375 C 81.941406 29.488281 82.699219 29.179688 83.660156 29.179688 C 84.628906 29.179688 85.390625 29.46875 85.929688 30.050781 C 86.460938 30.621094 86.730469 31.429688 86.730469 32.480469 L 86.730469 33.179688 L 82.289062 33.179688 C 82.289062 33.691406 82.441406 34.082031 82.738281 34.332031 C 83.039062 34.589844 83.488281 34.710938 84.089844 34.710938 C 84.480469 34.710938 84.871094 34.660156 85.261719 34.539062 C 85.640625 34.429688 86.039062 34.25 86.460938 34 Z M 85 31.890625 C 85 31.441406 84.878906 31.089844 84.660156 30.859375 C 84.429688 30.628906 84.101562 30.511719 83.660156 30.511719 C 83.269531 30.511719 82.949219 30.628906 82.71875 30.871094 C 82.480469 31.109375 82.351562 31.449219 82.300781 31.898438 "/>
<path style="fill:none;stroke-width:10;stroke-linecap:square;stroke-linejoin:miter;stroke:rgb(0%,0%,0%);stroke-opacity:1;stroke-miterlimit:10;" d="M 1150 190 L 1310 190 " transform="matrix(0.1,0,0,-0.1,0,51)"/>
<path style="fill:none;stroke-width:10;stroke-linecap:square;stroke-linejoin:miter;stroke:rgb(0%,0%,0%);stroke-opacity:1;stroke-miterlimit:10;" d="M 1310 190 L 1470 190 " transform="matrix(0.1,0,0,-0.1,0,51)"/>
<path style="fill:none;stroke-width:10;stroke-linecap:square;stroke-linejoin:miter;stroke:rgb(0%,0%,0%);stroke-opacity:1;stroke-miterlimit:10;" d="M 1310 190 L 1310 370 " transform="matrix(0.1,0,0,-0.1,0,51)"/>
<path style="fill:none;stroke-width:10;stroke-linecap:square;stroke-linejoin:miter;stroke:rgb(0%,0%,0%);stroke-opacity:1;stroke-miterlimit:10;" d="M 1350 410 C 1327.890625 410 1310 392.109375 1310 370 " transform="matrix(0.1,0,0,-0.1,0,51)"/>
<path style="fill:none;stroke-width:10;stroke-linecap:square;stroke-linejoin:miter;stroke:rgb(0%,0%,0%);stroke-opacity:1;stroke-miterlimit:10;" d="M 1350 410 L 1470 410 " transform="matrix(0.1,0,0,-0.1,0,51)"/>
<path style="fill:none;stroke-width:10;stroke-linecap:square;stroke-linejoin:miter;stroke:rgb(0%,0%,0%);stroke-opacity:1;stroke-miterlimit:10;" d="M 1290 270 L 1310 190 L 1330 270 Z M 1290 270 " transform="matrix(0.1,0,0,-0.1,0,51)"/>
<path style=" stroke:none;fill-rule:nonzero;fill:rgb(0%,0%,0%);fill-opacity:1;" d="M 129 24 L 131 32 L 133 24 "/>
<path style="fill:none;stroke-width:10;stroke-linecap:square;stroke-linejoin:miter;stroke:rgb(0%,0%,0%);stroke-opacity:1;stroke-miterlimit:10;" d="M 1470 410 L 1950 410 " transform="matrix(0.1,0,0,-0.1,0,51)"/>
<path style="fill:none;stroke-width:10;stroke-linecap:square;stroke-linejoin:miter;stroke:rgb(0%,0%,0%);stroke-opacity:1;stroke-miterlimit:10;" d="M 1950 410 L 2070 410 " transform="matrix(0.1,0,0,-0.1,0,51)"/>
<path style="fill:none;stroke-width:10;stroke-linecap:square;stroke-linejoin:miter;stroke:rgb(0%,0%,0%);stroke-opacity:1;stroke-miterlimit:10;" d="M 2110 370 C 2110 392.109375 2092.109375 410 2070 410 " transform="matrix(0.1,0,0,-0.1,0,51)"/>
<path style="fill:none;stroke-width:10;stroke-linecap:square;stroke-linejoin:miter;stroke:rgb(0%,0%,0%);stroke-opacity:1;stroke-miterlimit:10;" d="M 2110 370 L 2110 190 " transform="matrix(0.1,0,0,-0.1,0,51)"/>
<path style="fill:none;stroke-width:10;stroke-linecap:square;stroke-linejoin:miter;stroke:rgb(0%,0%,0%);stroke-opacity:1;stroke-miterlimit:10;" d="M 1470 190 L 1580 190 " transform="matrix(0.1,0,0,-0.1,0,51)"/>
<path style="fill:none;stroke-width:10;stroke-linecap:square;stroke-linejoin:miter;stroke:rgb(0%,0%,0%);stroke-opacity:1;stroke-miterlimit:10;" d="M 1500 210 L 1580 190 L 1500 170 Z M 1500 210 " transform="matrix(0.1,0,0,-0.1,0,51)"/>
<path style=" stroke:none;fill-rule:nonzero;fill:rgb(0%,0%,0%);fill-opacity:1;" d="M 150 30 L 158 32 L 150 34 "/>
<path style=" stroke:none;fill-rule:nonzero;fill:rgb(100%,100%,100%);fill-opacity:1;" d="M 158 22 L 200 22 L 200 41 L 158 41 L 158 22 "/>
<path style="fill:none;stroke-width:10;stroke-linecap:square;stroke-linejoin:miter;stroke:rgb(0%,0%,0%);stroke-opacity:1;stroke-miterlimit:10;" d="M 1580 290 L 2000 290 L 2000 100 L 1580 100 Z M 1580 290 " transform="matrix(0.1,0,0,-0.1,0,51)"/>
<path style="fill:none;stroke-width:10;stroke-linecap:square;stroke-linejoin:miter;stroke:rgb(0%,0%,0%);stroke-opacity:1;stroke-miterlimit:10;" d="M 2000 190 L 2110 190 " transform="matrix(0.1,0,0,-0.1,0,51)"/>
<path style=" stroke:none;fill-rule:nonzero;fill:rgb(0%,0%,50%);fill-opacity:1;" d="M 180.988281 35.769531 L 179.261719 35.769531 L 179.261719 28.539062 L 177.039062 28.539062 L 177.039062 27.03125 L 183.210938 27.03125 L 183.210938 28.539062 L 180.988281 28.539062 "/>
<path style="fill:none;stroke-width:10;stroke-linecap:square;stroke-linejoin:miter;stroke:rgb(0%,0%,0%);stroke-opacity:1;stroke-miterlimit:10;" d="M 2110 190 L 2270 190 " transform="matrix(0.1,0,0,-0.1,0,51)"/>
<path style="fill:none;stroke-width:10;stroke-linecap:square;stroke-linejoin:miter;stroke:rgb(0%,0%,0%);stroke-opacity:1;stroke-miterlimit:10;" d="M 2190 210 L 2270 190 L 2190 170 Z M 2190 210 " transform="matrix(0.1,0,0,-0.1,0,51)"/>
<path style=" stroke:none;fill-rule:nonzero;fill:rgb(0%,0%,0%);fill-opacity:1;" d="M 219 30 L 227 32 L 219 34 "/>
</g>
</svg>
