<?xml version="1.0" encoding="UTF-8"?>
<svg xmlns="http://www.w3.org/2000/svg" xmlns:xlink="http://www.w3.org/1999/xlink" width="263pt" height="103pt" viewBox="0 0 263 103" version="1.1">
<g id="surface1">
<path style=" stroke:none;fill-rule:nonzero;fill:rgb(0%,0%,0%);fill-opacity:1;" d="M 14.101562 20.480469 C 13.460938 20.480469 13.011719 20.558594 12.761719 20.730469 C 12.511719 20.890625 12.378906 21.167969 12.378906 21.570312 C 12.378906 21.871094 12.46875 22.101562 12.640625 22.28125 C 12.820312 22.460938 13.058594 22.539062 13.359375 22.539062 C 13.808594 22.539062 14.160156 22.371094 14.410156 22.03125 C 14.660156 21.691406 14.789062 21.210938 14.789062 20.601562 L 14.789062 20.480469 Z M 16.488281 19.820312 L 16.488281 23.558594 L 14.789062 23.558594 L 14.789062 22.832031 C 14.582031 23.121094 14.308594 23.339844 13.988281 23.5 C 13.667969 23.648438 13.308594 23.730469 12.917969 23.730469 C 12.167969 23.730469 11.589844 23.539062 11.167969 23.140625 C 10.761719 22.75 10.550781 22.199219 10.550781 21.488281 C 10.550781 20.71875 10.800781 20.160156 11.289062 19.789062 C 11.789062 19.429688 12.558594 19.238281 13.601562 19.238281 L 14.789062 19.238281 L 14.789062 18.960938 C 14.789062 18.679688 14.691406 18.46875 14.488281 18.332031 C 14.28125 18.179688 13.988281 18.109375 13.601562 18.109375 C 13.191406 18.109375 12.789062 18.167969 12.410156 18.269531 C 12.019531 18.371094 11.621094 18.539062 11.199219 18.761719 L 11.199219 17.300781 C 11.582031 17.140625 11.960938 17.03125 12.359375 16.949219 C 12.75 16.878906 13.160156 16.839844 13.601562 16.839844 C 14.660156 16.839844 15.410156 17.058594 15.839844 17.488281 C 16.28125 17.929688 16.488281 18.699219 16.488281 19.820312 Z M 19.269531 20.832031 L 19.269531 15.761719 L 17.53125 15.761719 L 17.53125 14.449219 L 20.980469 14.449219 L 20.980469 20.832031 C 20.980469 21.339844 21.058594 21.710938 21.21875 21.917969 C 21.378906 22.140625 21.660156 22.238281 22.039062 22.238281 L 23.410156 22.238281 L 23.410156 23.558594 L 21.558594 23.558594 C 20.738281 23.558594 20.160156 23.351562 19.800781 22.929688 C 19.449219 22.511719 19.269531 21.808594 19.269531 20.832031 Z M 28.039062 15.140625 L 28.039062 17 L 30.289062 17 L 30.289062 18.320312 L 28.039062 18.320312 L 28.039062 21.417969 C 28.039062 21.71875 28.109375 21.929688 28.261719 22.050781 C 28.398438 22.179688 28.640625 22.238281 28.96875 22.238281 L 30.289062 22.238281 L 30.289062 23.558594 L 28.851562 23.558594 C 27.859375 23.558594 27.199219 23.410156 26.851562 23.089844 C 26.5 22.78125 26.332031 22.191406 26.332031 21.339844 L 26.332031 18.320312 L 24.648438 18.320312 L 24.648438 17 L 26.332031 17 L 26.332031 15.140625 Z M 37.460938 23.238281 C 37.058594 23.398438 36.648438 23.53125 36.238281 23.609375 C 35.820312 23.691406 35.390625 23.730469 34.929688 23.730469 C 33.832031 23.730469 32.988281 23.441406 32.410156 22.851562 C 31.832031 22.261719 31.539062 21.417969 31.539062 20.308594 C 31.539062 19.238281 31.820312 18.390625 32.378906 17.769531 C 32.941406 17.148438 33.699219 16.839844 34.660156 16.839844 C 35.628906 16.839844 36.390625 17.128906 36.929688 17.710938 C 37.460938 18.28125 37.730469 19.089844 37.730469 20.140625 L 37.730469 20.839844 L 33.289062 20.839844 C 33.289062 21.351562 33.441406 21.738281 33.738281 21.988281 C 34.039062 22.25 34.488281 22.371094 35.089844 22.371094 C 35.480469 22.371094 35.871094 22.320312 36.261719 22.199219 C 36.640625 22.089844 37.039062 21.910156 37.460938 21.660156 Z M 36 19.550781 C 36 19.101562 35.878906 18.75 35.660156 18.519531 C 35.429688 18.289062 35.101562 18.167969 34.660156 18.167969 C 34.269531 18.167969 33.949219 18.289062 33.71875 18.53125 C 33.480469 18.769531 33.351562 19.109375 33.300781 19.558594 Z M 44.738281 18.808594 C 44.558594 18.640625 44.339844 18.511719 44.082031 18.417969 C 43.832031 18.339844 43.558594 18.300781 43.261719 18.300781 C 42.890625 18.300781 42.582031 18.359375 42.300781 18.488281 C 42.03125 18.609375 41.820312 18.800781 41.667969 19.039062 C 41.582031 19.191406 41.511719 19.371094 41.480469 19.582031 C 41.441406 19.789062 41.417969 20.109375 41.417969 20.539062 L 41.417969 23.558594 L 39.710938 23.558594 L 39.710938 17 L 41.417969 17 L 41.417969 18.019531 C 41.589844 17.640625 41.851562 17.351562 42.199219 17.148438 C 42.539062 16.941406 42.949219 16.839844 43.410156 16.839844 C 43.648438 16.839844 43.878906 16.871094 44.101562 16.929688 C 44.332031 16.980469 44.539062 17.070312 44.738281 17.179688 Z M 51.28125 19.300781 L 51.28125 23.558594 L 49.570312 23.558594 L 49.570312 19.570312 C 49.570312 19.089844 49.5 18.75 49.371094 18.539062 C 49.230469 18.339844 49.011719 18.238281 48.710938 18.238281 C 48.398438 18.238281 48.160156 18.378906 47.980469 18.648438 C 47.800781 18.929688 47.710938 19.308594 47.710938 19.808594 L 47.710938 23.558594 L 46.011719 23.558594 L 46.011719 17 L 47.710938 17 L 47.710938 17.980469 C 47.832031 17.621094 48.039062 17.339844 48.332031 17.140625 C 48.628906 16.941406 48.980469 16.839844 49.390625 16.839844 C 50.019531 16.839844 50.480469 17.050781 50.800781 17.460938 C 51.121094 17.871094 51.28125 18.488281 51.28125 19.300781 Z M 56.101562 20.480469 C 55.460938 20.480469 55.011719 20.558594 54.761719 20.730469 C 54.511719 20.890625 54.378906 21.167969 54.378906 21.570312 C 54.378906 21.871094 54.46875 22.101562 54.640625 22.28125 C 54.820312 22.460938 55.058594 22.539062 55.359375 22.539062 C 55.808594 22.539062 56.160156 22.371094 56.410156 22.03125 C 56.660156 21.691406 56.789062 21.210938 56.789062 20.601562 L 56.789062 20.480469 Z M 58.488281 19.820312 L 58.488281 23.558594 L 56.789062 23.558594 L 56.789062 22.832031 C 56.582031 23.121094 56.308594 23.339844 55.988281 23.5 C 55.667969 23.648438 55.308594 23.730469 54.917969 23.730469 C 54.167969 23.730469 53.589844 23.539062 53.167969 23.140625 C 52.761719 22.75 52.550781 22.199219 52.550781 21.488281 C 52.550781 20.71875 52.800781 20.160156 53.289062 19.789062 C 53.789062 19.429688 54.558594 19.238281 55.601562 19.238281 L 56.789062 19.238281 L 56.789062 18.960938 C 56.789062 18.679688 56.691406 18.46875 56.488281 18.332031 C 56.28125 18.179688 55.988281 18.109375 55.601562 18.109375 C 55.191406 18.109375 54.789062 18.167969 54.410156 18.269531 C 54.019531 18.371094 53.621094 18.539062 53.199219 18.761719 L 53.199219 17.300781 C 53.582031 17.140625 53.960938 17.03125 54.359375 16.949219 C 54.75 16.878906 55.160156 16.839844 55.601562 16.839844 C 56.660156 16.839844 57.410156 17.058594 57.839844 17.488281 C 58.28125 17.929688 58.488281 18.699219 58.488281 19.820312 Z M 63.039062 15.140625 L 63.039062 17 L 65.289062 17 L 65.289062 18.320312 L 63.039062 18.320312 L 63.039062 21.417969 C 63.039062 21.71875 63.109375 21.929688 63.261719 22.050781 C 63.398438 22.179688 63.640625 22.238281 63.96875 22.238281 L 65.289062 22.238281 L 65.289062 23.558594 L 63.851562 23.558594 C 62.859375 23.558594 62.199219 23.410156 61.851562 23.089844 C 61.5 22.78125 61.332031 22.191406 61.332031 21.339844 L 61.332031 18.320312 L 59.648438 18.320312 L 59.648438 17 L 61.332031 17 L 61.332031 15.140625 Z M 67.289062 17 L 70.691406 17 L 70.691406 22.238281 L 72.832031 22.238281 L 72.832031 23.558594 L 66.839844 23.558594 L 66.839844 22.238281 L 68.980469 22.238281 L 68.980469 18.320312 L 67.289062 18.320312 Z M 68.980469 13.808594 L 70.691406 13.808594 L 70.691406 15.808594 L 68.980469 15.808594 Z M 79.761719 17 L 77.667969 23.558594 L 75.550781 23.558594 L 73.46875 17 L 75.210938 17 L 76.609375 22.121094 L 78.019531 17 Z M 86.460938 23.238281 C 86.058594 23.398438 85.648438 23.53125 85.238281 23.609375 C 84.820312 23.691406 84.390625 23.730469 83.929688 23.730469 C 82.832031 23.730469 81.988281 23.441406 81.410156 22.851562 C 80.832031 22.261719 80.539062 21.417969 80.539062 20.308594 C 80.539062 19.238281 80.820312 18.390625 81.378906 17.769531 C 81.941406 17.148438 82.699219 16.839844 83.660156 16.839844 C 84.628906 16.839844 85.390625 17.128906 85.929688 17.710938 C 86.460938 18.28125 86.730469 19.089844 86.730469 20.140625 L 86.730469 20.839844 L 82.289062 20.839844 C 82.289062 21.351562 82.441406 21.738281 82.738281 21.988281 C 83.039062 22.25 83.488281 22.371094 84.089844 22.371094 C 84.480469 22.371094 84.871094 22.320312 85.261719 22.199219 C 85.640625 22.089844 86.039062 21.910156 86.460938 21.660156 Z M 85 19.550781 C 85 19.101562 84.878906 18.75 84.660156 18.519531 C 84.429688 18.289062 84.101562 18.167969 83.660156 18.167969 C 83.269531 18.167969 82.949219 18.289062 82.71875 18.53125 C 82.480469 18.769531 82.351562 19.109375 82.300781 19.558594 Z M 92.808594 17.210938 L 92.808594 18.710938 C 92.488281 18.5 92.160156 18.351562 91.820312 18.25 C 91.480469 18.140625 91.128906 18.089844 90.789062 18.089844 C 90.410156 18.089844 90.121094 18.148438 89.917969 18.261719 C 89.730469 18.371094 89.628906 18.53125 89.628906 18.75 C 89.628906 19.058594 90.050781 19.320312 90.878906 19.511719 L 90.949219 19.53125 L 91.441406 19.648438 C 92.070312 19.800781 92.519531 20.039062 92.820312 20.371094 C 93.109375 20.699219 93.25 21.140625 93.25 21.710938 C 93.25 22.378906 93.03125 22.890625 92.589844 23.230469 C 92.140625 23.558594 91.480469 23.730469 90.589844 23.730469 C 90.191406 23.730469 89.789062 23.699219 89.371094 23.628906 C 88.960938 23.558594 88.539062 23.460938 88.109375 23.320312 L 88.109375 21.820312 C 88.488281 22.039062 88.878906 22.199219 89.269531 22.308594 C 89.660156 22.429688 90.039062 22.480469 90.410156 22.480469 C 90.808594 22.480469 91.121094 22.429688 91.320312 22.308594 C 91.53125 22.191406 91.628906 22.019531 91.628906 21.800781 C 91.628906 21.582031 91.558594 21.410156 91.417969 21.300781 C 91.269531 21.179688 90.917969 21.050781 90.371094 20.917969 L 89.890625 20.808594 C 89.238281 20.667969 88.761719 20.429688 88.460938 20.121094 C 88.160156 19.800781 88.011719 19.378906 88.011719 18.851562 C 88.011719 18.210938 88.238281 17.71875 88.691406 17.371094 C 89.148438 17.019531 89.789062 16.839844 90.621094 16.839844 C 90.988281 16.839844 91.359375 16.871094 91.730469 16.929688 C 92.101562 16.988281 92.460938 17.082031 92.808594 17.210938 "/>
<path style="fill:none;stroke-width:10;stroke-linecap:square;stroke-linejoin:miter;stroke:rgb(0%,0%,0%);stroke-opacity:1;stroke-miterlimit:10;" d="M 1250 840 L 1410 840 " transform="matrix(0.1,0,0,-0.1,0,103)"/>
<path style="fill:none;stroke-width:10;stroke-linecap:square;stroke-linejoin:miter;stroke:rgb(0%,0%,0%);stroke-opacity:1;stroke-miterlimit:10;" d="M 1410 840 L 1570 840 " transform="matrix(0.1,0,0,-0.1,0,103)"/>
<path style="fill:none;stroke-width:10;stroke-linecap:square;stroke-linejoin:miter;stroke:rgb(0%,0%,0%);stroke-opacity:1;stroke-miterlimit:10;" d="M 1410 800 L 1410 520 " transform="matrix(0.1,0,0,-0.1,0,103)"/>
<path style="fill:none;stroke-width:10;stroke-linecap:square;stroke-linejoin:miter;stroke:rgb(0%,0%,0%);stroke-opacity:1;stroke-miterlimit:10;" d="M 1410 520 L 1570 520 " transform="matrix(0.1,0,0,-0.1,0,103)"/>
<path style="fill:none;stroke-width:10;stroke-linecap:square;stroke-linejoin:miter;stroke:rgb(0%,0%,0%);stroke-opacity:1;stroke-miterlimit:10;" d="M 1410 840 L 1410 240 " transform="matrix(0.1,0,0,-0.1,0,103)"/>
<path style="fill:none;stroke-width:10;stroke-linecap:square;stroke-linejoin:miter;stroke:rgb(0%,0%,0%);stroke-opacity:1;stroke-miterlimit:10;" d="M 1450 200 C 1427.890625 200 1410 217.890625 1410 240 " transform="matrix(0.1,0,0,-0.1,0,103)"/>
<path style="fill:none;stroke-width:10;stroke-linecap:square;stroke-linejoin:miter;stroke:rgb(0%,0%,0%);stroke-opacity:1;stroke-miterlimit:10;" d="M 1450 200 L 1570 200 " transform="matrix(0.1,0,0,-0.1,0,103)"/>
<path style="fill:none;stroke-width:10;stroke-linecap:square;stroke-linejoin:miter;stroke:rgb(0%,0%,0%);stroke-opacity:1;stroke-miterlimit:10;" d="M 1570 840 L 1670 840 " transform="matrix(0.1,0,0,-0.1,0,103)"/>
<path style="fill:none;stroke-width:10;stroke-linecap:square;stroke-linejoin:miter;stroke:rgb(0%,0%,0%);stroke-opacity:1;stroke-miterlimit:10;" d="M 1590 860 L 1670 840 L 1590 820 Z M 1590 860 " transform="matrix(0.1,0,0,-0.1,0,103)"/>
<path style=" stroke:none;fill-rule:nonzero;fill:rgb(0%,0%,0%);fill-opacity:1;" d="M 159 17 L 167 19 L 159 21 "/>
<path style=" stroke:none;fill-rule:nonzero;fill:rgb(100%,100%,100%);fill-opacity:1;" d="M 167 10 L 209 10 L 209 29 L 167 29 L 167 10 "/>
<path style="fill:none;stroke-width:10;stroke-linecap:square;stroke-linejoin:miter;stroke:rgb(0%,0%,0%);stroke-opacity:1;stroke-miterlimit:10;" d="M 1670 890 L 1670 780 C 1670 757.890625 1687.890625 740 1710 740 L 2050 740 C 2072.109375 740 2090 757.890625 2090 780 L 2090 890 C 2090 912.109375 2072.109375 930 2050 930 L 1710 930 C 1687.890625 930 1670 912.109375 1670 890 Z M 1670 890 " transform="matrix(0.1,0,0,-0.1,0,103)"/>
<path style="fill:none;stroke-width:10;stroke-linecap:square;stroke-linejoin:miter;stroke:rgb(0%,0%,0%);stroke-opacity:1;stroke-miterlimit:10;" d="M 2100 840 L 2210 840 " transform="matrix(0.1,0,0,-0.1,0,103)"/>
<path style=" stroke:none;fill-rule:nonzero;fill:rgb(41.992188%,0%,41.992188%);fill-opacity:1;" d="M 186.820312 14.710938 L 186.820312 16.582031 L 189.058594 16.582031 L 189.058594 17.890625 L 186.820312 17.890625 L 186.820312 21 C 186.820312 21.289062 186.890625 21.5 187.03125 21.628906 C 187.171875 21.761719 187.410156 21.820312 187.738281 21.820312 L 189.058594 21.820312 L 189.058594 23.140625 L 187.621094 23.140625 C 186.628906 23.140625 185.96875 22.980469 185.621094 22.667969 C 185.269531 22.351562 185.101562 21.769531 185.101562 20.917969 L 185.101562 17.890625 L 183.421875 17.890625 L 183.421875 16.582031 L 185.101562 16.582031 L 185.101562 14.710938 Z M 190.488281 18.769531 C 190.488281 17.261719 190.730469 16.121094 191.210938 15.371094 C 191.699219 14.609375 192.421875 14.230469 193.378906 14.230469 C 194.351562 14.230469 195.078125 14.609375 195.558594 15.359375 C 196.039062 16.121094 196.28125 17.25 196.28125 18.769531 C 196.28125 20.289062 196.039062 21.417969 195.558594 22.179688 C 195.078125 22.929688 194.351562 23.308594 193.378906 23.308594 C 192.421875 23.308594 191.699219 22.929688 191.210938 22.167969 C 190.730469 21.417969 190.488281 20.28125 190.488281 18.769531 Z M 192.511719 21.109375 C 192.691406 21.601562 192.980469 21.839844 193.378906 21.839844 C 193.78125 21.839844 194.078125 21.601562 194.261719 21.109375 C 194.449219 20.621094 194.539062 19.839844 194.539062 18.769531 C 194.539062 18.371094 194.519531 18 194.5 17.679688 L 192.449219 20.941406 C 192.46875 21 192.488281 21.058594 192.511719 21.109375 Z M 193.378906 15.699219 C 192.980469 15.699219 192.691406 15.941406 192.511719 16.429688 C 192.328125 16.917969 192.230469 17.699219 192.230469 18.769531 C 192.230469 19.101562 192.238281 19.410156 192.261719 19.679688 L 194.269531 16.460938 C 194.269531 16.449219 194.269531 16.441406 194.261719 16.429688 C 194.078125 15.941406 193.78125 15.699219 193.378906 15.699219 "/>
<path style="fill:none;stroke-width:10;stroke-linecap:square;stroke-linejoin:miter;stroke:rgb(0%,0%,0%);stroke-opacity:1;stroke-miterlimit:10;" d="M 2210 840 L 2370 840 " transform="matrix(0.1,0,0,-0.1,0,103)"/>
<path style="fill:none;stroke-width:10;stroke-linecap:square;stroke-linejoin:miter;stroke:rgb(0%,0%,0%);stroke-opacity:1;stroke-miterlimit:10;" d="M 2370 840 L 2530 840 " transform="matrix(0.1,0,0,-0.1,0,103)"/>
<path style="fill:none;stroke-width:10;stroke-linecap:square;stroke-linejoin:miter;stroke:rgb(0%,0%,0%);stroke-opacity:1;stroke-miterlimit:10;" d="M 2450 860 L 2530 840 L 2450 820 Z M 2450 860 " transform="matrix(0.1,0,0,-0.1,0,103)"/>
<path style=" stroke:none;fill-rule:nonzero;fill:rgb(0%,0%,0%);fill-opacity:1;" d="M 245 17 L 253 19 L 245 21 "/>
<path style="fill:none;stroke-width:10;stroke-linecap:square;stroke-linejoin:miter;stroke:rgb(0%,0%,0%);stroke-opacity:1;stroke-miterlimit:10;" d="M 1570 520 L 1670 520 " transform="matrix(0.1,0,0,-0.1,0,103)"/>
<path style="fill:none;stroke-width:10;stroke-linecap:square;stroke-linejoin:miter;stroke:rgb(0%,0%,0%);stroke-opacity:1;stroke-miterlimit:10;" d="M 1590 540 L 1670 520 L 1590 500 Z M 1590 540 " transform="matrix(0.1,0,0,-0.1,0,103)"/>
<path style=" stroke:none;fill-rule:nonzero;fill:rgb(0%,0%,0%);fill-opacity:1;" d="M 159 49 L 167 51 L 159 53 "/>
<path style=" stroke:none;fill-rule:nonzero;fill:rgb(100%,100%,100%);fill-opacity:1;" d="M 167 42 L 209 42 L 209 61 L 167 61 L 167 42 "/>
<path style="fill:none;stroke-width:10;stroke-linecap:square;stroke-linejoin:miter;stroke:rgb(0%,0%,0%);stroke-opacity:1;stroke-miterlimit:10;" d="M 1670 570 L 1670 460 C 1670 437.890625 1687.890625 420 1710 420 L 2050 420 C 2072.109375 420 2090 437.890625 2090 460 L 2090 570 C 2090 592.109375 2072.109375 610 2050 610 L 1710 610 C 1687.890625 610 1670 592.109375 1670 570 Z M 1670 570 " transform="matrix(0.1,0,0,-0.1,0,103)"/>
<path style="fill:none;stroke-width:10;stroke-linecap:square;stroke-linejoin:miter;stroke:rgb(0%,0%,0%);stroke-opacity:1;stroke-miterlimit:10;" d="M 2100 520 L 2210 520 " transform="matrix(0.1,0,0,-0.1,0,103)"/>
<path style=" stroke:none;fill-rule:nonzero;fill:rgb(41.992188%,0%,41.992188%);fill-opacity:1;" d="M 186.738281 46.550781 L 186.738281 48.410156 L 188.988281 48.410156 L 188.988281 49.730469 L 186.738281 49.730469 L 186.738281 52.839844 C 186.738281 53.128906 186.808594 53.339844 186.960938 53.46875 C 187.101562 53.589844 187.339844 53.660156 187.671875 53.660156 L 188.988281 53.660156 L 188.988281 54.96875 L 187.550781 54.96875 C 186.558594 54.96875 185.898438 54.820312 185.550781 54.5 C 185.199219 54.191406 185.03125 53.601562 185.03125 52.75 L 185.03125 49.730469 L 183.351562 49.730469 L 183.351562 48.410156 L 185.03125 48.410156 L 185.03125 46.550781 Z M 190.800781 53.449219 L 192.738281 53.449219 L 192.738281 47.769531 L 190.941406 48.21875 L 190.941406 46.660156 L 192.75 46.230469 L 194.421875 46.230469 L 194.421875 53.449219 L 196.351562 53.449219 L 196.351562 54.96875 L 190.800781 54.96875 "/>
<path style="fill:none;stroke-width:10;stroke-linecap:square;stroke-linejoin:miter;stroke:rgb(0%,0%,0%);stroke-opacity:1;stroke-miterlimit:10;" d="M 2210 520 L 2370 520 " transform="matrix(0.1,0,0,-0.1,0,103)"/>
<path style="fill:none;stroke-width:10;stroke-linecap:square;stroke-linejoin:miter;stroke:rgb(0%,0%,0%);stroke-opacity:1;stroke-miterlimit:10;" d="M 2370 520 L 2370 840 " transform="matrix(0.1,0,0,-0.1,0,103)"/>
<path style="fill:none;stroke-width:10;stroke-linecap:square;stroke-linejoin:miter;stroke:rgb(0%,0%,0%);stroke-opacity:1;stroke-miterlimit:10;" d="M 2290 540 L 2370 520 L 2290 500 Z M 2290 540 " transform="matrix(0.1,0,0,-0.1,0,103)"/>
<path style=" stroke:none;fill-rule:nonzero;fill:rgb(0%,0%,0%);fill-opacity:1;" d="M 229 49 L 237 51 L 229 53 "/>
<path style="fill:none;stroke-width:10;stroke-linecap:square;stroke-linejoin:miter;stroke:rgb(0%,0%,0%);stroke-opacity:1;stroke-miterlimit:10;" d="M 2350 760 L 2370 840 L 2390 760 Z M 2350 760 " transform="matrix(0.1,0,0,-0.1,0,103)"/>
<path style=" stroke:none;fill-rule:nonzero;fill:rgb(0%,0%,0%);fill-opacity:1;" d="M 235 27 L 237 19 L 239 27 "/>
<path style="fill:none;stroke-width:10;stroke-linecap:square;stroke-linejoin:miter;stroke:rgb(0%,0%,0%);stroke-opacity:1;stroke-miterlimit:10;" d="M 1570 200 L 1670 200 " transform="matrix(0.1,0,0,-0.1,0,103)"/>
<path style="fill:none;stroke-width:10;stroke-linecap:square;stroke-linejoin:miter;stroke:rgb(0%,0%,0%);stroke-opacity:1;stroke-miterlimit:10;" d="M 1590 220 L 1670 200 L 1590 180 Z M 1590 220 " transform="matrix(0.1,0,0,-0.1,0,103)"/>
<path style=" stroke:none;fill-rule:nonzero;fill:rgb(0%,0%,0%);fill-opacity:1;" d="M 159 81 L 167 83 L 159 85 "/>
<path style=" stroke:none;fill-rule:nonzero;fill:rgb(100%,100%,100%);fill-opacity:1;" d="M 167 74 L 209 74 L 209 93 L 167 93 L 167 74 "/>
<path style="fill:none;stroke-width:10;stroke-linecap:square;stroke-linejoin:miter;stroke:rgb(0%,0%,0%);stroke-opacity:1;stroke-miterlimit:10;" d="M 1670 250 L 1670 140 C 1670 117.890625 1687.890625 100 1710 100 L 2050 100 C 2072.109375 100 2090 117.890625 2090 140 L 2090 250 C 2090 272.109375 2072.109375 290 2050 290 L 1710 290 C 1687.890625 290 1670 272.109375 1670 250 Z M 1670 250 " transform="matrix(0.1,0,0,-0.1,0,103)"/>
<path style="fill:none;stroke-width:10;stroke-linecap:square;stroke-linejoin:miter;stroke:rgb(0%,0%,0%);stroke-opacity:1;stroke-miterlimit:10;" d="M 2100 200 L 2210 200 " transform="matrix(0.1,0,0,-0.1,0,103)"/>
<path style=" stroke:none;fill-rule:nonzero;fill:rgb(41.992188%,0%,41.992188%);fill-opacity:1;" d="M 186.949219 78.628906 L 186.949219 80.488281 L 189.199219 80.488281 L 189.199219 81.808594 L 186.949219 81.808594 L 186.949219 84.910156 C 186.949219 85.210938 187.03125 85.417969 187.171875 85.539062 C 187.308594 85.667969 187.550781 85.730469 187.878906 85.730469 L 189.199219 85.730469 L 189.199219 87.050781 L 187.761719 87.050781 C 186.769531 87.050781 186.109375 86.898438 185.761719 86.582031 C 185.410156 86.269531 185.238281 85.679688 185.238281 84.832031 L 185.238281 81.808594 L 183.558594 81.808594 L 183.558594 80.488281 L 185.238281 80.488281 L 185.238281 78.628906 Z M 192.449219 85.53125 L 196.140625 85.53125 L 196.140625 87.050781 L 190.578125 87.050781 L 190.578125 85.582031 L 191.519531 84.582031 C 192.640625 83.398438 193.308594 82.667969 193.550781 82.390625 C 193.839844 82.058594 194.050781 81.761719 194.179688 81.5 C 194.308594 81.238281 194.378906 80.980469 194.378906 80.730469 C 194.378906 80.339844 194.261719 80.039062 194.019531 79.832031 C 193.78125 79.609375 193.449219 79.511719 193.019531 79.511719 C 192.710938 79.511719 192.359375 79.570312 191.980469 79.691406 C 191.589844 79.808594 191.191406 79.988281 190.769531 80.230469 L 190.769531 78.621094 C 191.191406 78.460938 191.601562 78.351562 192 78.269531 C 192.398438 78.191406 192.78125 78.148438 193.148438 78.148438 C 194.078125 78.148438 194.800781 78.359375 195.328125 78.789062 C 195.859375 79.230469 196.128906 79.808594 196.128906 80.558594 C 196.128906 80.898438 196.070312 81.230469 195.949219 81.53125 C 195.839844 81.832031 195.640625 82.160156 195.359375 82.53125 C 195.148438 82.800781 194.578125 83.390625 193.660156 84.320312 C 193.148438 84.832031 192.75 85.230469 192.449219 85.53125 "/>
<path style="fill:none;stroke-width:10;stroke-linecap:square;stroke-linejoin:miter;stroke:rgb(0%,0%,0%);stroke-opacity:1;stroke-miterlimit:10;" d="M 2210 200 L 2330 200 " transform="matrix(0.1,0,0,-0.1,0,103)"/>
<path style="fill:none;stroke-width:10;stroke-linecap:square;stroke-linejoin:miter;stroke:rgb(0%,0%,0%);stroke-opacity:1;stroke-miterlimit:10;" d="M 2370 240 C 2370 217.890625 2352.109375 200 2330 200 " transform="matrix(0.1,0,0,-0.1,0,103)"/>
<path style="fill:none;stroke-width:10;stroke-linecap:square;stroke-linejoin:miter;stroke:rgb(0%,0%,0%);stroke-opacity:1;stroke-miterlimit:10;" d="M 2370 240 L 2370 840 " transform="matrix(0.1,0,0,-0.1,0,103)"/>
<path style="fill:none;stroke-width:10;stroke-linecap:square;stroke-linejoin:miter;stroke:rgb(0%,0%,0%);stroke-opacity:1;stroke-miterlimit:10;" d="M 2350 760 L 2370 840 L 2390 760 Z M 2350 760 " transform="matrix(0.1,0,0,-0.1,0,103)"/>
<path style=" stroke:none;fill-rule:nonzero;fill:rgb(0%,0%,0%);fill-opacity:1;" d="M 235 27 L 237 19 L 239 27 "/>
</g>
</svg>
