<?xml version="1.0" encoding="UTF-8" standalone="no"?>
<!DOCTYPE svg PUBLIC "-//W3C//DTD SVG 1.1//EN"
 "http://www.w3.org/Graphics/SVG/1.1/DTD/svg11.dtd">
<!-- Generated by graphviz version 2.30.1 (20130221.2233)
 -->
<!-- Title: ModesAndLevels Pages: 1 -->
<svg width="576pt" height="105pt"
 viewBox="0.00 0.00 576.00 105.41" xmlns="http://www.w3.org/2000/svg" xmlns:xlink="http://www.w3.org/1999/xlink">
<g id="graph0" class="graph" transform="scale(1 1) rotate(0) translate(4 101.412)">
<title>ModesAndLevels</title>
<polygon fill="white" stroke="white" points="-4,5 -4,-101.412 573,-101.412 573,5 -4,5"/>
<!-- PRIVILEGED_THREAD -->
<g id="node1" class="node"><title>PRIVILEGED_THREAD</title>
<ellipse fill="none" stroke="black" cx="127" cy="-28.4115" rx="58.8803" ry="26.7407"/>
<text text-anchor="middle" x="127" y="-32.2115" font-family="Times,serif" font-size="14.00">Thread</text>
<text text-anchor="middle" x="127" y="-17.2115" font-family="Times,serif" font-size="14.00">(privileged)</text>
</g>
<!-- PRIVILEGED_HANDLER -->
<g id="node3" class="node"><title>PRIVILEGED_HANDLER</title>
<ellipse fill="none" stroke="black" cx="337" cy="-70.4115" rx="58.8803" ry="26.7407"/>
<text text-anchor="middle" x="337" y="-74.2115" font-family="Times,serif" font-size="14.00">Handler</text>
<text text-anchor="middle" x="337" y="-59.2115" font-family="Times,serif" font-size="14.00">(privileged)</text>
</g>
<!-- PRIVILEGED_THREAD&#45;&gt;PRIVILEGED_HANDLER -->
<g id="edge4" class="edge"><title>PRIVILEGED_THREAD&#45;&gt;PRIVILEGED_HANDLER</title>
<path fill="none" stroke="black" d="M168.266,-47.4882C179.595,-52.1198 192.083,-56.5555 204,-59.4115 224.563,-64.3396 247.385,-67.1466 268.189,-68.7205"/>
<polygon fill="black" stroke="black" points="268.008,-72.2162 278.221,-69.398 268.48,-65.2321 268.008,-72.2162"/>
<text text-anchor="middle" x="232" y="-72.2115" font-family="Times,serif" font-size="14.00">exception</text>
</g>
<!-- USER_THREAD -->
<g id="node2" class="node"><title>USER_THREAD</title>
<ellipse fill="none" stroke="black" cx="528" cy="-32.4115" rx="39.6962" ry="26.7407"/>
<text text-anchor="middle" x="528" y="-36.2115" font-family="Times,serif" font-size="14.00">Thread</text>
<text text-anchor="middle" x="528" y="-21.2115" font-family="Times,serif" font-size="14.00">(user)</text>
</g>
<!-- PRIVILEGED_THREAD&#45;&gt;USER_THREAD -->
<g id="edge6" class="edge"><title>PRIVILEGED_THREAD&#45;&gt;USER_THREAD</title>
<path fill="none" stroke="black" d="M181.949,-19.0337C189.354,-17.7904 196.862,-16.5524 204,-15.4115 288.402,-1.92144 311,4.57101 396,-4.41151 424.662,-7.44036 456.272,-14.0982 481.26,-20.1619"/>
<polygon fill="black" stroke="black" points="480.638,-23.6135 491.186,-22.6233 482.323,-16.8193 480.638,-23.6135"/>
<text text-anchor="middle" x="337" y="-23.2115" font-family="Times,serif" font-size="14.00">Program CONTROL</text>
<text text-anchor="middle" x="337" y="-8.21151" font-family="Times,serif" font-size="14.00">register</text>
</g>
<!-- USER_THREAD&#45;&gt;PRIVILEGED_HANDLER -->
<g id="edge2" class="edge"><title>USER_THREAD&#45;&gt;PRIVILEGED_HANDLER</title>
<path fill="none" stroke="black" d="M488.574,-28.5864C466.475,-27.4151 438.35,-27.6856 414,-33.4115 403.282,-35.932 392.317,-40.1534 382.172,-44.8622"/>
<polygon fill="black" stroke="black" points="380.564,-41.7528 373.116,-49.2887 383.638,-48.0417 380.564,-41.7528"/>
<text text-anchor="middle" x="442" y="-37.2115" font-family="Times,serif" font-size="14.00">exception</text>
</g>
<!-- PRIVILEGED_HANDLER&#45;&gt;USER_THREAD -->
<g id="edge3" class="edge"><title>PRIVILEGED_HANDLER&#45;&gt;USER_THREAD</title>
<path fill="none" stroke="black" d="M393.168,-62.5845C416.924,-58.8618 444.943,-53.999 470,-48.4115 473.84,-47.5551 477.807,-46.5971 481.776,-45.587"/>
<polygon fill="black" stroke="black" points="482.802,-48.9359 491.576,-42.9969 481.013,-42.1683 482.802,-48.9359"/>
<text text-anchor="middle" x="442" y="-78.2115" font-family="Times,serif" font-size="14.00">exception</text>
<text text-anchor="middle" x="442" y="-63.2115" font-family="Times,serif" font-size="14.00">end</text>
</g>
<!-- PRIVILEGED_HANDLER&#45;&gt;PRIVILEGED_THREAD -->
<g id="edge5" class="edge"><title>PRIVILEGED_HANDLER&#45;&gt;PRIVILEGED_THREAD</title>
<path fill="none" stroke="black" d="M306.274,-47.7822C292.885,-38.9643 276.416,-29.9071 260,-25.4115 238.624,-19.5576 214.565,-18.5535 192.9,-19.5709"/>
<polygon fill="black" stroke="black" points="192.571,-16.0844 182.806,-20.1951 193.003,-23.0711 192.571,-16.0844"/>
<text text-anchor="middle" x="232" y="-44.2115" font-family="Times,serif" font-size="14.00">exception</text>
<text text-anchor="middle" x="232" y="-29.2115" font-family="Times,serif" font-size="14.00">end</text>
</g>
<!-- START -->
<g id="node4" class="node"><title>START</title>
<ellipse fill="black" stroke="black" cx="2" cy="-28.4115" rx="1.8" ry="1.8"/>
</g>
<!-- START&#45;&gt;PRIVILEGED_THREAD -->
<g id="edge1" class="edge"><title>START&#45;&gt;PRIVILEGED_THREAD</title>
<path fill="none" stroke="black" d="M4.38135,-28.4115C10.1806,-28.4115 33.4011,-28.4115 58.0221,-28.4115"/>
<polygon fill="black" stroke="black" points="58.2366,-31.9116 68.2366,-28.4115 58.2366,-24.9116 58.2366,-31.9116"/>
<text text-anchor="middle" x="36" y="-32.2115" font-family="Times,serif" font-size="14.00">reset</text>
</g>
</g>
</svg>
