<?xml version="1.0" encoding="UTF-8" standalone="no"?>
<!DOCTYPE svg PUBLIC "-//W3C//DTD SVG 1.1//EN"
 "http://www.w3.org/Graphics/SVG/1.1/DTD/svg11.dtd">
<!-- Generated by graphviz version 2.38.0 (20140413.2041)
 -->
<!-- Title: DbMappings Pages: 1 -->
<svg width="373pt" height="248pt"
 viewBox="0.00 0.00 372.65 248.00" xmlns="http://www.w3.org/2000/svg" xmlns:xlink="http://www.w3.org/1999/xlink">
<g id="graph0" class="graph" transform="scale(1 1) rotate(0) translate(4 244)">
<title>DbMappings</title>
<polygon fill="white" stroke="none" points="-4,4 -4,-244 368.645,-244 368.645,4 -4,4"/>
<!-- RealWorld -->
<g id="node1" class="node"><title>RealWorld</title>
<ellipse fill="none" stroke="black" cx="52.6453" cy="-18" rx="52.7911" ry="18"/>
<text text-anchor="middle" x="52.6453" y="-14.3" font-family="Times,serif" font-size="14.00">Real World</text>
</g>
<!-- Database -->
<g id="node2" class="node"><title>Database</title>
<ellipse fill="none" stroke="black" cx="87.6453" cy="-222" rx="44.393" ry="18"/>
<text text-anchor="middle" x="87.6453" y="-218.3" font-family="Times,serif" font-size="14.00">Database</text>
</g>
<!-- Database&#45;&gt;RealWorld -->
<g id="edge1" class="edge"><title>Database&#45;&gt;RealWorld</title>
<path fill="none" stroke="black" d="M70.9479,-195.765C61.4786,-179.909 50.5645,-158.616 45.6453,-138 38.2814,-107.138 42.2482,-70.5611 46.6154,-46.1833"/>
<polygon fill="black" stroke="black" points="68.0661,-197.76 76.3001,-204.427 74.021,-194.08 68.0661,-197.76"/>
<polygon fill="black" stroke="black" points="50.0796,-46.7035 48.5451,-36.2204 43.2074,-45.3724 50.0796,-46.7035"/>
<text text-anchor="middle" x="102.645" y="-123.8" font-family="Times,serif" font-size="14.00">Mapping 1</text>
<text text-anchor="middle" x="102.645" y="-108.8" font-family="Times,serif" font-size="14.00">Enterprise modeling</text>
</g>
<!-- Program -->
<g id="node3" class="node"><title>Program</title>
<ellipse fill="none" stroke="black" cx="210.645" cy="-120" rx="42.4939" ry="18"/>
<text text-anchor="middle" x="210.645" y="-116.3" font-family="Times,serif" font-size="14.00">Program</text>
</g>
<!-- Database&#45;&gt;Program -->
<g id="edge2" class="edge"><title>Database&#45;&gt;Program</title>
<path fill="none" stroke="black" d="M114.42,-199.232C134.992,-182.507 163.274,-159.513 183.851,-142.784"/>
<polygon fill="black" stroke="black" points="112.146,-196.57 106.595,-205.594 116.562,-202.002 112.146,-196.57"/>
<polygon fill="black" stroke="black" points="186.325,-145.283 191.876,-136.259 181.909,-139.852 186.325,-145.283"/>
<text text-anchor="middle" x="265.645" y="-174.8" font-family="Times,serif" font-size="14.00">Mapping 2</text>
<text text-anchor="middle" x="265.645" y="-159.8" font-family="Times,serif" font-size="14.00">Interface between program and DB</text>
</g>
<!-- Program&#45;&gt;RealWorld -->
<g id="edge3" class="edge"><title>Program&#45;&gt;RealWorld</title>
<path fill="none" stroke="black" d="M179.525,-99.3036C152.243,-82.0367 112.73,-57.0282 85.0678,-39.5205"/>
<polygon fill="black" stroke="black" points="177.686,-102.282 188.008,-104.672 181.43,-96.367 177.686,-102.282"/>
<polygon fill="black" stroke="black" points="86.8552,-36.5097 76.5335,-34.1191 83.1115,-42.4246 86.8552,-36.5097"/>
<text text-anchor="middle" x="251.645" y="-72.8" font-family="Times,serif" font-size="14.00">Mapping 3</text>
<text text-anchor="middle" x="251.645" y="-57.8" font-family="Times,serif" font-size="14.00">Simulation (normal programming)</text>
</g>
</g>
</svg>
