<?xml version="1.0" encoding="UTF-8" standalone="no"?>
<!-- Created with Inkscape (http://www.inkscape.org/) -->

<svg
   xmlns:dc="http://purl.org/dc/elements/1.1/"
   xmlns:cc="http://creativecommons.org/ns#"
   xmlns:rdf="http://www.w3.org/1999/02/22-rdf-syntax-ns#"
   xmlns:svg="http://www.w3.org/2000/svg"
   xmlns="http://www.w3.org/2000/svg"
   xmlns:sodipodi="http://sodipodi.sourceforge.net/DTD/sodipodi-0.dtd"
   xmlns:inkscape="http://www.inkscape.org/namespaces/inkscape"
   width="110mm"
   height="102.34309mm"
   viewBox="0 0 389.76378 362.63301"
   id="svg6568"
   version="1.1"
   inkscape:version="0.91 r13725"
   sodipodi:docname="artist_mode.svg">
  <defs
     id="defs6570">
    <marker
       inkscape:isstock="true"
       style="overflow:visible"
       id="marker22060"
       refX="0"
       refY="0"
       orient="auto"
       inkscape:stockid="Arrow1Lend">
      <path
         transform="matrix(-0.8,0,0,-0.8,-10,0)"
         style="fill:#000000;fill-opacity:1;fill-rule:evenodd;stroke:#000000;stroke-width:1pt;stroke-opacity:1"
         d="M 0,0 5,-5 -12.5,0 5,5 0,0 Z"
         id="path22062"
         inkscape:connector-curvature="0" />
    </marker>
    <marker
       inkscape:isstock="true"
       style="overflow:visible"
       id="marker22015"
       refX="0"
       refY="0"
       orient="auto"
       inkscape:stockid="Arrow1Lend">
      <path
         transform="matrix(-0.8,0,0,-0.8,-10,0)"
         style="fill:#000000;fill-opacity:1;fill-rule:evenodd;stroke:#000000;stroke-width:1pt;stroke-opacity:1"
         d="M 0,0 5,-5 -12.5,0 5,5 0,0 Z"
         id="path22017"
         inkscape:connector-curvature="0" />
    </marker>
    <marker
       inkscape:stockid="Arrow1Lend"
       orient="auto"
       refY="0"
       refX="0"
       id="marker21973"
       style="overflow:visible"
       inkscape:isstock="true"
       inkscape:collect="always">
      <path
         id="path21975"
         d="M 0,0 5,-5 -12.5,0 5,5 0,0 Z"
         style="fill:#000000;fill-opacity:1;fill-rule:evenodd;stroke:#000000;stroke-width:1pt;stroke-opacity:1"
         transform="matrix(-0.8,0,0,-0.8,-10,0)"
         inkscape:connector-curvature="0" />
    </marker>
  </defs>
  <sodipodi:namedview
     id="base"
     pagecolor="#ffffff"
     bordercolor="#666666"
     borderopacity="1.0"
     inkscape:pageopacity="0.0"
     inkscape:pageshadow="2"
     inkscape:zoom="0.7"
     inkscape:cx="63.58631"
     inkscape:cy="416.08971"
     inkscape:document-units="px"
     inkscape:current-layer="layer1"
     showgrid="false"
     inkscape:window-width="1436"
     inkscape:window-height="855"
     inkscape:window-x="4"
     inkscape:window-y="0"
     inkscape:window-maximized="1"
     fit-margin-top="5"
     fit-margin-right="5"
     fit-margin-bottom="5"
     fit-margin-left="5" />
  <metadata
     id="metadata6573">
    <rdf:RDF>
      <cc:Work
         rdf:about="">
        <dc:format>image/svg+xml</dc:format>
        <dc:type
           rdf:resource="http://purl.org/dc/dcmitype/StillImage" />
        <dc:title></dc:title>
      </cc:Work>
    </rdf:RDF>
  </metadata>
  <g
     inkscape:label="Ebene 1"
     inkscape:groupmode="layer"
     id="layer1"
     transform="translate(-132.29165,-367.19944)">
    <g
       id="g22222">
      <path
         inkscape:tile-y0="136.64793"
         inkscape:tile-x0="268.94211"
         inkscape:connector-curvature="0"
         id="use17372"
         d="m 325.77752,689.17436 0,-273.8654"
         style="fill:#000000;fill-opacity:1;fill-rule:nonzero;stroke:#000000;stroke-width:3.47990274;stroke-linecap:butt;stroke-linejoin:miter;stroke-miterlimit:4;stroke-dasharray:none;stroke-opacity:1;marker-end:url(#marker22060)" />
      <path
         inkscape:tile-y0="136.64793"
         inkscape:tile-x0="268.94211"
         inkscape:connector-curvature="0"
         id="use17374"
         d="M 228.95149,649.0677 422.60356,455.41562"
         style="fill:#000000;fill-opacity:1;fill-rule:nonzero;stroke:#000000;stroke-width:3.47990274;stroke-linecap:butt;stroke-linejoin:miter;stroke-miterlimit:4;stroke-dasharray:none;stroke-opacity:1;marker-end:url(#marker21973)" />
      <path
         inkscape:tile-y0="136.64793"
         inkscape:tile-x0="268.94211"
         inkscape:connector-curvature="0"
         id="use17376"
         d="m 188.84483,552.24167 273.86539,0"
         style="fill:#000000;fill-opacity:1;fill-rule:nonzero;stroke:#000000;stroke-width:3.47990274;stroke-linecap:butt;stroke-linejoin:miter;stroke-miterlimit:4;stroke-dasharray:none;stroke-opacity:1;marker-end:url(#marker21973)" />
      <path
         inkscape:tile-y0="136.64793"
         inkscape:tile-x0="268.94211"
         inkscape:connector-curvature="0"
         id="use17378"
         d="M 228.95148,455.41562 422.60356,649.0677"
         style="fill:#000000;fill-opacity:1;fill-rule:nonzero;stroke:#000000;stroke-width:3.47990274;stroke-linecap:butt;stroke-linejoin:miter;stroke-miterlimit:4;stroke-dasharray:none;stroke-opacity:1;marker-end:url(#marker21973)" />
      <path
         inkscape:tile-y0="136.64793"
         inkscape:tile-x0="268.94211"
         inkscape:connector-curvature="0"
         id="use17380"
         d="m 325.77752,415.30898 0,273.8654"
         style="fill:#000000;fill-opacity:1;fill-rule:nonzero;stroke:#000000;stroke-width:3.47990274;stroke-linecap:butt;stroke-linejoin:miter;stroke-miterlimit:4;stroke-dasharray:none;stroke-opacity:1;marker-end:url(#marker21973)" />
      <path
         inkscape:tile-y0="136.64793"
         inkscape:tile-x0="268.94211"
         inkscape:connector-curvature="0"
         id="use17382"
         d="M 422.60356,455.41563 228.95148,649.06771"
         style="fill:#000000;fill-opacity:1;fill-rule:nonzero;stroke:#000000;stroke-width:3.47990274;stroke-linecap:butt;stroke-linejoin:miter;stroke-miterlimit:4;stroke-dasharray:none;stroke-opacity:1;marker-end:url(#marker21973)" />
      <path
         inkscape:tile-y0="136.64793"
         inkscape:tile-x0="268.94211"
         inkscape:connector-curvature="0"
         id="use17384"
         d="m 462.71022,552.24167 -273.86539,0"
         style="fill:#000000;fill-opacity:1;fill-rule:nonzero;stroke:#000000;stroke-width:3.47990274;stroke-linecap:butt;stroke-linejoin:miter;stroke-miterlimit:4;stroke-dasharray:none;stroke-opacity:1;marker-end:url(#marker21973)" />
      <path
         inkscape:tile-y0="136.64793"
         inkscape:tile-x0="268.94211"
         inkscape:connector-curvature="0"
         id="use17386"
         d="M 422.60356,649.0677 228.95148,455.41562"
         style="fill:#000000;fill-opacity:1;fill-rule:nonzero;stroke:#000000;stroke-width:3.47990274;stroke-linecap:butt;stroke-linejoin:miter;stroke-miterlimit:4;stroke-dasharray:none;stroke-opacity:1;marker-end:url(#marker21973)" />
      <g
         transform="matrix(0.32342157,0,0,0.32342157,221.35856,371.11406)"
         id="text17413"
         style="font-style:normal;font-weight:normal;font-size:40px;line-height:125%;font-family:sans-serif;letter-spacing:0px;word-spacing:0px;fill:#000000;fill-opacity:1;stroke:none;stroke-width:1px;stroke-linecap:butt;stroke-linejoin:miter;stroke-opacity:1" />
      <g
         transform="matrix(0.32342157,0,0,0.32342157,221.35856,371.11406)"
         id="text17417"
         style="font-style:normal;font-weight:normal;font-size:40px;line-height:125%;font-family:sans-serif;letter-spacing:0px;word-spacing:0px;fill:#000000;fill-opacity:1;stroke:none;stroke-width:1px;stroke-linecap:butt;stroke-linejoin:miter;stroke-opacity:1" />
      <g
         transform="matrix(0.32342157,0,0,0.32342157,221.35856,371.11406)"
         id="text17421"
         style="font-style:normal;font-weight:normal;font-size:40px;line-height:125%;font-family:sans-serif;letter-spacing:0px;word-spacing:0px;fill:#000000;fill-opacity:1;stroke:none;stroke-width:1px;stroke-linecap:butt;stroke-linejoin:miter;stroke-opacity:1" />
      <g
         transform="matrix(0.32342157,0,0,0.32342157,221.35856,371.11406)"
         id="text17425"
         style="font-style:normal;font-weight:normal;font-size:40px;line-height:125%;font-family:sans-serif;letter-spacing:0px;word-spacing:0px;fill:#000000;fill-opacity:1;stroke:none;stroke-width:1px;stroke-linecap:butt;stroke-linejoin:miter;stroke-opacity:1" />
      <g
         transform="matrix(0.32342157,0,0,0.32342157,221.35856,371.11406)"
         id="text17429"
         style="font-style:normal;font-weight:normal;font-size:40px;line-height:125%;font-family:sans-serif;letter-spacing:0px;word-spacing:0px;fill:#000000;fill-opacity:1;stroke:none;stroke-width:1px;stroke-linecap:butt;stroke-linejoin:miter;stroke-opacity:1" />
      <g
         transform="matrix(0.32342157,0,0,0.32342157,221.35856,371.11406)"
         id="text17433"
         style="font-style:normal;font-weight:normal;font-size:40px;line-height:125%;font-family:sans-serif;letter-spacing:0px;word-spacing:0px;fill:#000000;fill-opacity:1;stroke:none;stroke-width:1px;stroke-linecap:butt;stroke-linejoin:miter;stroke-opacity:1" />
      <g
         transform="matrix(0.32342157,0,0,0.32342157,221.35856,371.11406)"
         id="text17437"
         style="font-style:normal;font-weight:normal;font-size:40px;line-height:125%;font-family:sans-serif;letter-spacing:0px;word-spacing:0px;fill:#000000;fill-opacity:1;stroke:none;stroke-width:1px;stroke-linecap:butt;stroke-linejoin:miter;stroke-opacity:1" />
      <g
         transform="matrix(0.32342157,0,0,0.32342157,221.35856,371.11406)"
         id="text17441"
         style="font-style:normal;font-weight:normal;font-size:40px;line-height:125%;font-family:sans-serif;letter-spacing:0px;word-spacing:0px;fill:#000000;fill-opacity:1;stroke:none;stroke-width:1px;stroke-linecap:butt;stroke-linejoin:miter;stroke-opacity:1">
        <path
           inkscape:connector-curvature="0"
           d="m 2.8487701,171.7986 5.5078125,7.30469 -2.9882812,0 -6.36718751,-7.30469 3.84765621,0 z m -22.3437501,10.95703 0,3.35938 q -1.523437,-0.83985 -3.066406,-1.25 -1.523438,-0.42969 -3.085938,-0.42969 -3.496093,0 -5.429687,2.22656 -1.933594,2.20703 -1.933594,6.21094 0,4.0039 1.933594,6.23047 1.933594,2.20703 5.429687,2.20703 1.5625,0 3.085938,-0.41016 1.542969,-0.42969 3.066406,-1.26953 l 0,3.32031 q -1.503906,0.70313 -3.125,1.05469 -1.601562,0.35156 -3.417969,0.35156 -4.941406,0 -7.851562,-3.10547 -2.910156,-3.10546 -2.910156,-8.3789 0,-5.35156 2.929687,-8.41797 2.949219,-3.06641 8.066406,-3.06641 1.660157,0 3.242188,0.35157 1.582031,0.33203 3.066406,1.01562 z m -32.011719,8.47656 10.527344,0 0,3.20313 -10.527344,0 0,-3.20313 z m -4.160156,-14.35547 0,4.16016 q -1.992187,-1.85547 -4.257812,-2.77344 -2.246094,-0.91797 -4.785157,-0.91797 -5,0 -7.65625,3.06641 -2.65625,3.04688 -2.65625,8.82813 0,5.76171 2.65625,8.82812 2.65625,3.04688 7.65625,3.04688 2.539063,0 4.785157,-0.91797 2.265625,-0.91797 4.257812,-2.77344 l 0,4.12109 q -2.070312,1.40625 -4.394531,2.10938 -2.304688,0.70312 -4.882813,0.70312 -6.621093,0 -10.429687,-4.04297 -3.808594,-4.0625 -3.808594,-11.07421 0,-7.03125 3.808594,-11.07422 3.808594,-4.0625 10.429687,-4.0625 2.617188,0 4.921875,0.70312 2.324219,0.6836 4.355469,2.07031 z m -60.803575,337.22661 -20.15625,7.16797 20.15625,7.12891 0,3.55469 -25.03906,-9.08204 0,-3.24218 25.03906,-9.08203 0,3.55468 z m -44.45312,-1.34765 0,3.35937 q -1.52344,-0.83984 -3.06641,-1.25 -1.52344,-0.42969 -3.08594,-0.42969 -3.49609,0 -5.42968,2.22657 -1.9336,2.20703 -1.9336,6.21093 0,4.00391 1.9336,6.23047 1.93359,2.20703 5.42968,2.20703 1.5625,0 3.08594,-0.41015 1.54297,-0.42969 3.06641,-1.26953 l 0,3.32031 q -1.50391,0.70312 -3.125,1.05469 -1.60157,0.35156 -3.41797,0.35156 -4.94141,0 -7.85156,-3.10547 -2.91016,-3.10547 -2.91016,-8.37891 0,-5.35156 2.92969,-8.41796 2.94922,-3.06641 8.0664,-3.06641 1.66016,0 3.24219,0.35156 1.58203,0.33203 3.06641,1.01563 z m -32.01172,8.47656 10.52734,0 0,3.20312 -10.52734,0 0,-3.20312 z m -4.16016,-14.35547 0,4.16016 q -1.99219,-1.85547 -4.25781,-2.77344 -2.24609,-0.91797 -4.78516,-0.91797 -5,0 -7.65625,3.06641 -2.65625,3.04687 -2.65625,8.82812 0,5.76172 2.65625,8.82813 2.65625,3.04687 7.65625,3.04687 2.53907,0 4.78516,-0.91797 2.26562,-0.91797 4.25781,-2.77343 l 0,4.12109 q -2.07031,1.40625 -4.39453,2.10937 -2.30469,0.70313 -4.88281,0.70313 -6.6211,0 -10.42969,-4.04297 -3.80859,-4.0625 -3.80859,-11.07422 0,-7.03125 3.80859,-11.07422 3.80859,-4.0625 10.42969,-4.0625 2.61719,0 4.92187,0.70313 2.32422,0.68359 4.35547,2.07031 z m 240.075342,376.32526 3.320312,0 -10.15625,32.87109 -3.320312,0 10.15625,-32.87109 z m -25.332031,8.125 0,3.35937 q -1.523438,-0.83984 -3.066407,-1.25 -1.523437,-0.42969 -3.085937,-0.42969 -3.4960939,0 -5.4296877,2.22657 -1.9335937,2.20703 -1.9335937,6.21093 0,4.00391 1.9335937,6.23047 1.9335938,2.20703 5.4296877,2.20703 1.5625,0 3.085937,-0.41015 1.542969,-0.42969 3.066407,-1.26953 l 0,3.32031 q -1.503907,0.70312 -3.125,1.05469 -1.601563,0.35156 -3.417969,0.35156 -4.9414064,0 -7.8515627,-3.10547 -2.91015625,-3.10547 -2.91015625,-8.37891 0,-5.35156 2.92968755,-8.41796 2.9492187,-3.06641 8.0664064,-3.06641 1.660156,0 3.242187,0.35156 1.582032,0.33203 3.066407,1.01563 z m -32.011719,8.47656 10.5273436,0 0,3.20312 -10.5273436,0 0,-3.20312 z m -4.160156,-14.35547 0,4.16016 q -1.992188,-1.85547 -4.257813,-2.77344 -2.246094,-0.91797 -4.785156,-0.91797 -5,0 -7.65625,3.06641 -2.65625,3.04687 -2.65625,8.82812 0,5.76172 2.65625,8.82813 2.65625,3.04687 7.65625,3.04687 2.539062,0 4.785156,-0.91797 2.265625,-0.91797 4.257813,-2.77343 l 0,4.12109 q -2.070313,1.40625 -4.394532,2.10937 -2.304687,0.70313 -4.882812,0.70313 -6.621094,0 -10.429688,-4.04297 -3.808593,-4.0625 -3.808593,-11.07422 0,-7.03125 3.808593,-11.07422 3.808594,-4.0625 10.429688,-4.0625 2.617187,0 4.921875,0.70313 2.324219,0.68359 4.355469,2.07031 z m 382.767864,163.38168 4.12109,0 0,4.961 -4.12109,0 0,-4.961 z m -19.45313,-16.0742 0,3.3594 q -1.52344,-0.8399 -3.06641,-1.25 -1.52343,-0.4297 -3.08593,-0.4297 -3.4961,0 -5.42969,2.2266 -1.93359,2.207 -1.93359,6.2109 0,4.0039 1.93359,6.2305 1.93359,2.207 5.42969,2.207 1.5625,0 3.08593,-0.4102 1.54297,-0.4296 3.06641,-1.2695 l 0,3.3203 q -1.50391,0.7032 -3.125,1.0547 -1.60156,0.3516 -3.41797,0.3516 -4.9414,0 -7.85156,-3.1055 -2.91016,-3.1055 -2.91016,-8.3789 0,-5.3516 2.92969,-8.418 2.94922,-3.0664 8.06641,-3.0664 1.66015,0 3.24218,0.3516 1.58204,0.332 3.06641,1.0156 z m -32.01172,8.4766 10.52735,0 0,3.2031 -10.52735,0 0,-3.2031 z m -4.16015,-14.3555 0,4.1602 q -1.99219,-1.8555 -4.25782,-2.7735 -2.24609,-0.9179 -4.78515,-0.9179 -5,0 -7.65625,3.0664 -2.65625,3.0468 -2.65625,8.8281 0,5.7617 2.65625,8.8281 2.65625,3.0469 7.65625,3.0469 2.53906,0 4.78515,-0.918 2.26563,-0.9179 4.25782,-2.7734 l 0,4.1211 q -2.07032,1.4062 -4.39454,2.1094 -2.30468,0.7031 -4.88281,0.7031 -6.62109,0 -10.42969,-4.043 -3.80859,-4.0625 -3.80859,-11.0742 0,-7.0313 3.80859,-11.0742 3.8086,-4.0625 10.42969,-4.0625 2.61719,0 4.92188,0.7031 2.32422,0.6836 4.35547,2.0703 z m 396.09652,-129.38891 10.15625,32.8711 -3.32031,0 -10.15625,-32.8711 3.32031,0 z m -18.49609,8.125 0,3.35938 q -1.52344,-0.83985 -3.06641,-1.25 -1.52343,-0.42969 -3.08593,-0.42969 -3.4961,0 -5.42969,2.22656 -1.9336,2.20703 -1.9336,6.21094 0,4.00391 1.9336,6.23047 1.93359,2.20703 5.42969,2.20703 1.5625,0 3.08593,-0.41016 1.54297,-0.42968 3.06641,-1.26953 l 0,3.32032 q -1.50391,0.70312 -3.125,1.05468 -1.60156,0.35157 -3.41797,0.35157 -4.94141,0 -7.85156,-3.10547 -2.91016,-3.10547 -2.91016,-8.37891 0,-5.35156 2.92969,-8.41797 2.94922,-3.0664 8.06641,-3.0664 1.66015,0 3.24218,0.35156 1.58203,0.33203 3.06641,1.01562 z m -32.01172,8.47657 10.52734,0 0,3.20312 -10.52734,0 0,-3.20312 z m -4.16016,-14.35547 0,4.16015 q -1.99218,-1.85547 -4.25781,-2.77343 -2.24609,-0.91797 -4.78515,-0.91797 -5,0 -7.65625,3.0664 -2.65625,3.04688 -2.65625,8.82813 0,5.76172 2.65625,8.82812 2.65625,3.04688 7.65625,3.04688 2.53906,0 4.78515,-0.91797 2.26563,-0.91797 4.25781,-2.77344 l 0,4.1211 q -2.07031,1.40625 -4.39453,2.10937 -2.30468,0.70313 -4.88281,0.70313 -6.62109,0 -10.42969,-4.04297 -3.80859,-4.0625 -3.80859,-11.07422 0,-7.03125 3.80859,-11.07422 3.8086,-4.0625 10.42969,-4.0625 2.61719,0 4.92188,0.70312 2.32421,0.6836 4.35546,2.07032 z m 199.87165,-307.05915 0,-3.55468 25.03906,9.08203 0,3.24218 -25.03906,9.08204 0,-3.55469 20.11718,-7.12891 -20.11718,-7.16797 z m -19.41407,-1.34765 0,3.35937 q -1.52343,-0.83984 -3.0664,-1.25 -1.52344,-0.42969 -3.08594,-0.42969 -3.49609,0 -5.42969,2.22657 -1.93359,2.20703 -1.93359,6.21093 0,4.00391 1.93359,6.23047 1.9336,2.20703 5.42969,2.20703 1.5625,0 3.08594,-0.41015 1.54297,-0.42969 3.0664,-1.26953 l 0,3.32031 q -1.5039,0.70312 -3.125,1.05469 -1.60156,0.35156 -3.41796,0.35156 -4.94141,0 -7.85157,-3.10547 -2.91015,-3.10547 -2.91015,-8.37891 0,-5.35156 2.92968,-8.41796 2.94922,-3.06641 8.06641,-3.06641 1.66016,0 3.24219,0.35156 1.58203,0.33203 3.0664,1.01563 z m -32.01171,8.47656 10.52734,0 0,3.20312 -10.52734,0 0,-3.20312 z m -4.16016,-14.35547 0,4.16016 q -1.99219,-1.85547 -4.25781,-2.77344 -2.2461,-0.91797 -4.78516,-0.91797 -5,0 -7.65625,3.06641 -2.65625,3.04687 -2.65625,8.82812 0,5.76172 2.65625,8.82813 2.65625,3.04687 7.65625,3.04687 2.53906,0 4.78516,-0.91797 2.26562,-0.91797 4.25781,-2.77343 l 0,4.12109 q -2.07031,1.40625 -4.39453,2.10937 -2.30469,0.70313 -4.88281,0.70313 -6.6211,0 -10.42969,-4.04297 -3.8086,-4.0625 -3.8086,-11.07422 0,-7.03125 3.8086,-11.07422 3.80859,-4.0625 10.42969,-4.0625 2.61718,0 4.92187,0.70313 2.32422,0.68359 4.35547,2.07031 z m -44.34149,-417.96042 0,10.83985 -3.32031,0 0,-10.83985 3.32031,0 z m -22.34375,8.125 0,3.35938 q -1.52344,-0.83985 -3.06641,-1.25 -1.52344,-0.42969 -3.08594,-0.42969 -3.49609,0 -5.42968,2.22656 -1.9336,2.20703 -1.9336,6.21094 0,4.00391 1.9336,6.23047 1.93359,2.20703 5.42968,2.20703 1.5625,0 3.08594,-0.41016 1.54297,-0.42968 3.06641,-1.26953 l 0,3.32031 q -1.50391,0.70313 -3.125,1.05469 -1.60156,0.35156 -3.41797,0.35156 -4.94141,0 -7.85156,-3.10546 -2.91016,-3.10547 -2.91016,-8.37891 0,-5.35156 2.92969,-8.41797 2.94922,-3.06641 8.0664,-3.06641 1.66016,0 3.24219,0.35157 1.58203,0.33203 3.06641,1.01562 z m -32.01172,8.47656 10.52734,0 0,3.20313 -10.52734,0 0,-3.20313 z m -4.16016,-14.35546 0,4.16015 q -1.99218,-1.85547 -4.25781,-2.77344 -2.24609,-0.91796 -4.78516,-0.91796 -5,0 -7.65625,3.0664 -2.65625,3.04688 -2.65625,8.82813 0,5.76172 2.65625,8.82812 2.65625,3.04688 7.65625,3.04688 2.53907,0 4.78516,-0.91797 2.26563,-0.91797 4.25781,-2.77344 l 0,4.12109 q -2.07031,1.40625 -4.39453,2.10938 -2.30469,0.70312 -4.88281,0.70312 -6.62109,0 -10.42969,-4.04296 -3.80859,-4.0625 -3.80859,-11.07422 0,-7.03125 3.80859,-11.07422 3.8086,-4.0625 10.42969,-4.0625 2.61719,0 4.92187,0.70312 2.32422,0.6836 4.35547,2.07032 z m -304.2662,-126.531811 10.60547,10.878907 -3.92578,0 -8.59375,-7.714844 -8.59375,7.714844 -3.92579,0 10.60547,-10.878907 3.82813,0 z m -33.84766,8.125 0,3.359375 q -1.52344,-0.839843 -3.0664,-1.25 -1.52344,-0.429687 -3.08594,-0.429687 -3.4961,0 -5.42969,2.226562 -1.93359,2.207032 -1.93359,6.210938 0,4.003906 1.93359,6.230469 1.93359,2.207031 5.42969,2.207031 1.5625,0 3.08594,-0.410156 1.54296,-0.429688 3.0664,-1.269532 l 0,3.320313 q -1.5039,0.703125 -3.125,1.054687 -1.60156,0.351563 -3.41797,0.351563 -4.9414,0 -7.85156,-3.105469 -2.91016,-3.105469 -2.91016,-8.378906 0,-5.351563 2.92969,-8.417969 2.94922,-3.066406 8.06641,-3.066406 1.66015,0 3.24219,0.351562 1.58203,0.332032 3.0664,1.015625 z m -32.01172,8.476563 10.52735,0 0,3.203125 -10.52735,0 0,-3.203125 z m -4.16015,-14.355469 0,4.160156 q -1.99219,-1.855468 -4.25782,-2.773437 -2.24609,-0.917969 -4.78515,-0.917969 -5,0 -7.65625,3.066406 -2.65625,3.046875 -2.65625,8.828125 0,5.761719 2.65625,8.828125 2.65625,3.046875 7.65625,3.046875 2.53906,0 4.78515,-0.917968 2.26563,-0.917969 4.25782,-2.773438 l 0,4.121094 q -2.07032,1.40625 -4.39453,2.109375 -2.30469,0.703125 -4.88282,0.703125 -6.62109,0 -10.42968,-4.042969 -3.8086,-4.0625 -3.8086,-11.074219 0,-7.03125 3.8086,-11.074218 3.80859,-4.0625 10.42968,-4.0625 2.61719,0 4.92188,0.703125 2.32422,0.683593 4.35547,2.070312 z m 5.66686,91.199787 0,846.77529 m -423.38764,-423.38764 846.77529,0 M 23.476865,859.41585 622.23741,260.6553 m -299.38027,722.76797 0,-846.77529 M 622.23742,859.41584 23.476871,260.6553 m 722.767909,299.38027 -846.77529,0 M 622.23741,260.6553 23.476866,859.41585 m 299.380274,-722.76792 0,846.77529"
           id="path21829" />
      </g>
      <g
         transform="matrix(0.32342157,0,0,0.32342157,221.35856,371.11406)"
         id="text17445"
         style="font-style:normal;font-weight:normal;font-size:40px;line-height:125%;font-family:sans-serif;letter-spacing:0px;word-spacing:0px;fill:#000000;fill-opacity:1;stroke:none;stroke-width:1px;stroke-linecap:butt;stroke-linejoin:miter;stroke-opacity:1" />
    </g>
  </g>
</svg>
