<?xml version="1.0" encoding="UTF-8" standalone="no"?>
<!-- Generated by graphviz version 2.36.0 (20140111.2315)
 -->

<!-- Title: G Pages: 1 -->

<svg
   xmlns:dc="http://purl.org/dc/elements/1.1/"
   xmlns:cc="http://creativecommons.org/ns#"
   xmlns:rdf="http://www.w3.org/1999/02/22-rdf-syntax-ns#"
   xmlns:svg="http://www.w3.org/2000/svg"
   xmlns="http://www.w3.org/2000/svg"
   xmlns:xlink="http://www.w3.org/1999/xlink"
   xmlns:sodipodi="http://sodipodi.sourceforge.net/DTD/sodipodi-0.dtd"
   xmlns:inkscape="http://www.inkscape.org/namespaces/inkscape"
   height="160.00302pt"
   viewBox="0 0 106.30571 200.00377"
   width="85.044571pt"
   id="svg2"
   version="1.1"
   inkscape:version="0.91 r13725"
   sodipodi:docname="covariance.svg">
  <metadata
     id="metadata3074">
    <rdf:RDF>
      <cc:Work
         rdf:about="">
        <dc:format>image/svg+xml</dc:format>
        <dc:type
           rdf:resource="http://purl.org/dc/dcmitype/StillImage" />
        <dc:title></dc:title>
      </cc:Work>
    </rdf:RDF>
  </metadata>
  <sodipodi:namedview
     pagecolor="#ffffff"
     bordercolor="#666666"
     borderopacity="1"
     objecttolerance="10"
     gridtolerance="10"
     guidetolerance="10"
     inkscape:pageopacity="0"
     inkscape:pageshadow="2"
     inkscape:window-width="1341"
     inkscape:window-height="776"
     id="namedview3072"
     showgrid="false"
     fit-margin-top="5"
     fit-margin-left="5"
     fit-margin-right="5"
     fit-margin-bottom="5"
     inkscape:zoom="1.2688172"
     inkscape:cx="65.771646"
     inkscape:cy="104.75401"
     inkscape:window-x="0"
     inkscape:window-y="0"
     inkscape:window-maximized="0"
     inkscape:current-layer="svg2" />
  <defs
     id="defs4">
    <marker
       inkscape:stockid="Arrow1Lstart"
       orient="auto"
       refY="0"
       refX="0"
       id="Arrow1Lstart"
       style="overflow:visible"
       inkscape:isstock="true">
      <path
         id="path7212"
         d="M 0,0 5,-5 -12.5,0 5,5 0,0 Z"
         style="fill:#000000;fill-opacity:1;fill-rule:evenodd;stroke:#000000;stroke-width:1pt;stroke-opacity:1"
         transform="matrix(0.8,0,0,0.8,10,0)"
         inkscape:connector-curvature="0" />
    </marker>
    <filter
       filterRes="100"
       id="shadow"
       x="0"
       y="0">
      <feGaussianBlur
         stdDeviation="2 2"
         id="feGaussianBlur7" />
      <feOffset
         dx="2"
         dy="2"
         id="feOffset9" />
    </filter>
    <linearGradient
       id="lightgrey"
       x1="0"
       x2="1"
       y1="0"
       y2="1">
      <stop
         offset="0%"
         style="stop-color:rgb(255,255,255);stop-opacity:1"
         id="stop3026" />
      <stop
         offset="100%"
         style="stop-color:rgb(220,220,220);stop-opacity:1"
         id="stop3028" />
    </linearGradient>
    <linearGradient
       id="black"
       x1="24.340897"
       x2="35.520313"
       y1="-138.89207"
       y2="-127.71267"
       gradientTransform="scale(1.0309802,0.96995077)"
       gradientUnits="userSpaceOnUse">
      <stop
         offset="0%"
         style="stop-color:rgb(150,150,150);stop-opacity:2"
         id="stop3036" />
      <stop
         offset="100%"
         style="stop-color:rgb(0,0,0);stop-opacity:2"
         id="stop3038" />
    </linearGradient>
    <linearGradient
       inkscape:collect="always"
       xlink:href="#lightgrey"
       id="linearGradient7202"
       x1="-0.6382789"
       y1="-212.42691"
       x2="53.363884"
       y2="-158.42474"
       gradientTransform="scale(1.1934111,0.83793424)"
       gradientUnits="userSpaceOnUse" />
    <linearGradient
       inkscape:collect="always"
       xlink:href="#lightgrey"
       id="linearGradient7204"
       x1="0.013417443"
       y1="-51.451435"
       x2="52.834023"
       y2="1.3691714"
       gradientTransform="scale(1.1693535,0.85517341)"
       gradientUnits="userSpaceOnUse" />
  </defs>
  <g
     class="graph"
     id="graph0"
     transform="translate(7.0109599,184.24978)">
    <title
       id="title3041">G</title>
    <g
       class="node"
       id="node1">
      <title
         id="title3044">yuml_parent</title>
      <polygon
         points="62.25,-134.5 63.194833,-146.81694 62.25,-177.5 62.25,-177.5 58.181225,-176.25 -0.25,-177.5 -0.25,-177.5 0.7129683,-162.27219 -0.25,-134.5 -0.25,-134.5 38.198999,-133.25 62.25,-134.5 "
         style="fill:#000000;fill-opacity:0.2;stroke:none;filter:url(#shadow)"
         id="polygon3046" />
      <polygon
         points="62.25,-134.5 63.184421,-145.26323 62.25,-177.5 62.25,-177.5 19.870708,-176.25 -0.25,-177.5 -0.25,-177.5 0.63529724,-172.67678 -0.25,-134.5 -0.25,-134.5 18.372969,-133.25 62.25,-134.5 "
         style="fill:url(#linearGradient7202);stroke:#000000"
         id="polygon3048" />
      <text
         style="font-size:13px;font-family:Rufscript;text-anchor:middle"
         transform="translate(0,-2)"
         x="31"
         y="-152.3"
         id="text3050">Parent</text>
    </g>
    <g
       class="node"
       id="node2">
      <title
         id="title3053">yuml_child</title>
      <polygon
         points="60.25,-0.5 61.153383,-4.3974369 60.25,-43.5 60.25,-43.5 51.919681,-42.33 1.75,-43.5 1.75,-43.5 2.7418269,-19.869288 1.75,-0.5 1.75,-0.5 14.463778,0.67 60.25,-0.5 "
         style="fill:#000000;fill-opacity:0.2;stroke:none;filter:url(#shadow)"
         id="polygon3055" />
      <polygon
         points="60.25,-0.5 61.281074,-21.580868 60.25,-43.5 60.25,-43.5 59.972389,-42.33 1.75,-43.5 1.75,-43.5 2.9494336,-1.2542845 1.75,-0.5 1.75,-0.5 9.3620911,0.67 60.25,-0.5 "
         style="fill:url(#linearGradient7204);stroke:#000000"
         id="polygon3057" />
      <text
         style="font-size:13px;font-family:Rufscript;text-anchor:middle"
         transform="translate(0,-2)"
         x="31"
         y="-18.299999"
         id="text3059">Child</text>
    </g>
    <g
       class="edge"
       id="edge1">
      <title
         id="title3062">yuml_parent-&gt;yuml_child</title>
      <path
         d="m 31,-124.095 c 0,24.6801 0,58.5924 0,80.1792"
         id="path3064"
         inkscape:connector-curvature="0"
         style="fill:none;stroke:#000000" />
      <path
         d="m 31,-124.095 c 0,24.6801 0,58.5924 0,80.1792"
         style="fill:none;stroke:#000000;filter:url(#shadow)"
         id="path3066"
         inkscape:connector-curvature="0" />
      <polygon
         points="31.0001,-124.375 31.271205,-124.06836 31.0001,-124.375 31.0001,-124.375 31.026746,-124.36005 31.0001,-124.375 31.0001,-124.375 31.13898,-124.78942 31,-129.375 31,-129.375 33.06813,-127.05803 35.5001,-124.375 35.5001,-124.375 32.985745,-130.46908 31,-134.375 31,-134.375 31.092738,-134.30371 31,-134.375 31,-134.375 30.902297,-133.3478 26.5001,-124.375 26.5001,-124.375 27.74108,-125.29618 31,-129.375 31,-129.375 31.298064,-125.42481 31.0001,-124.375 "
         style="fill:#000000;fill-opacity:0.2;stroke:none;filter:url(#shadow)"
         id="polygon3068" />
      <polygon
         points="31.0001,-124.375 31.113742,-124.19742 31.0001,-124.375 31.0001,-124.375 31.047221,-124.28671 31.0001,-124.375 31.0001,-124.375 31.298565,-126.52659 31,-129.375 31,-129.375 32.355629,-127.87839 35.5001,-124.375 35.5001,-124.375 34.16597,-127.88918 31,-134.375 31,-134.375 31.319552,-134.03697 31,-134.375 31,-134.375 29.624724,-130.08087 26.5001,-124.375 26.5001,-124.375 29.101978,-126.49518 31,-129.375 31,-129.375 31.24526,-127.32952 31.0001,-124.375 "
         style="fill:url(#black);stroke:#000000"
         id="polygon3070" />
    </g>
  </g>
  <path
     style="fill:none;fill-rule:evenodd;stroke:#000000;stroke-width:1px;stroke-linecap:butt;stroke-linejoin:miter;stroke-opacity:1;marker-start:url(#Arrow1Lstart)"
     d="m 95.044859,22.800617 0,146.593233"
     id="path7206"
     inkscape:connector-curvature="0" />
</svg>
