<?xml version="1.0" encoding="UTF-8" standalone="no"?>
<!DOCTYPE svg PUBLIC "-//W3C//DTD SVG 1.1//EN"
 "http://www.w3.org/Graphics/SVG/1.1/DTD/svg11.dtd">
<!-- Generated by graphviz version 2.38.0 (20140413.2041)
 -->
<!-- Title: EvolutionaryAlgorithm Pages: 1 -->
<svg width="404pt" height="437pt"
 viewBox="0.00 0.00 403.65 437.00" xmlns="http://www.w3.org/2000/svg" xmlns:xlink="http://www.w3.org/1999/xlink">
<g id="graph0" class="graph" transform="scale(1 1) rotate(0) translate(4 433)">
<title>EvolutionaryAlgorithm</title>
<polygon fill="white" stroke="none" points="-4,4 -4,-433 399.645,-433 399.645,4 -4,4"/>
<!-- parent_set -->
<g id="node1" class="node"><title>parent_set</title>
<ellipse fill="none" stroke="black" cx="167.645" cy="-411" rx="69.5877" ry="18"/>
<text text-anchor="middle" x="167.645" y="-407.3" font-family="Times,serif" font-size="14.00">initial/parent set</text>
</g>
<!-- mated_set -->
<g id="node2" class="node"><title>mated_set</title>
<ellipse fill="none" stroke="black" cx="86.6453" cy="-309" rx="27" ry="18"/>
</g>
<!-- parent_set&#45;&gt;mated_set -->
<g id="edge1" class="edge"><title>parent_set&#45;&gt;mated_set</title>
<path fill="none" stroke="black" d="M145.447,-393.832C138.654,-388.295 131.449,-381.776 125.645,-375 115.413,-363.053 106.233,-348.091 99.3542,-335.535"/>
<polygon fill="black" stroke="black" points="102.337,-333.69 94.5628,-326.492 96.152,-336.967 102.337,-333.69"/>
<text text-anchor="middle" x="179.145" y="-363.8" font-family="Times,serif" font-size="14.00">1. mating selection</text>
<text text-anchor="middle" x="179.145" y="-348.8" font-family="Times,serif" font-size="14.00">(select best)</text>
</g>
<!-- crossed_over_set -->
<g id="node3" class="node"><title>crossed_over_set</title>
<ellipse fill="none" stroke="black" cx="59.6453" cy="-207" rx="27" ry="18"/>
</g>
<!-- mated_set&#45;&gt;crossed_over_set -->
<g id="edge3" class="edge"><title>mated_set&#45;&gt;crossed_over_set</title>
<path fill="none" stroke="black" d="M82.0651,-291.036C77.9147,-275.665 71.7284,-252.752 66.9049,-234.887"/>
<polygon fill="black" stroke="black" points="70.2337,-233.789 64.248,-225.047 63.4757,-235.614 70.2337,-233.789"/>
<text text-anchor="middle" x="138.645" y="-261.8" font-family="Times,serif" font-size="14.00">2. cross over operator</text>
<text text-anchor="middle" x="138.645" y="-246.8" font-family="Times,serif" font-size="14.00">(small variations)</text>
</g>
<!-- children_set -->
<g id="node4" class="node"><title>children_set</title>
<ellipse fill="none" stroke="black" cx="52.6453" cy="-105" rx="52.7911" ry="18"/>
<text text-anchor="middle" x="52.6453" y="-101.3" font-family="Times,serif" font-size="14.00">children set</text>
</g>
<!-- crossed_over_set&#45;&gt;children_set -->
<g id="edge4" class="edge"><title>crossed_over_set&#45;&gt;children_set</title>
<path fill="none" stroke="black" d="M58.426,-188.581C57.362,-173.382 55.8,-151.067 54.5678,-133.464"/>
<polygon fill="black" stroke="black" points="58.0405,-132.95 53.8507,-123.219 51.0576,-133.439 58.0405,-132.95"/>
<text text-anchor="middle" x="114.645" y="-159.8" font-family="Times,serif" font-size="14.00">3. mutation operator</text>
<text text-anchor="middle" x="114.645" y="-144.8" font-family="Times,serif" font-size="14.00">(small variations)</text>
</g>
<!-- union_set -->
<g id="node5" class="node"><title>union_set</title>
<ellipse fill="none" stroke="black" cx="148.645" cy="-18" rx="27" ry="18"/>
</g>
<!-- children_set&#45;&gt;union_set -->
<g id="edge5" class="edge"><title>children_set&#45;&gt;union_set</title>
<path fill="none" stroke="black" d="M48.0212,-86.7792C46.2809,-76.388 46.0756,-63.3879 52.6453,-54 65.9315,-35.0145 90.6535,-26.2913 111.682,-22.3007"/>
<polygon fill="black" stroke="black" points="112.325,-25.7423 121.642,-20.6976 111.213,-18.8312 112.325,-25.7423"/>
<text text-anchor="middle" x="142.645" y="-57.8" font-family="Times,serif" font-size="14.00">4. combine parents and children</text>
</g>
<!-- union_set&#45;&gt;parent_set -->
<g id="edge2" class="edge"><title>union_set&#45;&gt;parent_set</title>
<path fill="none" stroke="black" d="M174.544,-23.5493C193.217,-28.1441 217.672,-37.0825 232.645,-54 247.94,-71.2806 246.645,-80.9231 246.645,-104 246.645,-310 246.645,-310 246.645,-310 246.645,-339.551 250.4,-351.377 232.645,-375 227.935,-381.267 221.764,-386.538 215.1,-390.93"/>
<polygon fill="black" stroke="black" points="213.295,-387.932 206.468,-396.033 216.857,-393.958 213.295,-387.932"/>
<text text-anchor="middle" x="321.145" y="-210.8" font-family="Times,serif" font-size="14.00">5. environmental selection</text>
<text text-anchor="middle" x="321.145" y="-195.8" font-family="Times,serif" font-size="14.00">(kill bad solutions)</text>
</g>
</g>
</svg>
