<?xml version="1.0" encoding="UTF-8" standalone="no"?>
<!DOCTYPE svg PUBLIC "-//W3C//DTD SVG 1.1//EN"
 "http://www.w3.org/Graphics/SVG/1.1/DTD/svg11.dtd">
<!-- Generated by graphviz version 2.30.1 (20130221.2233)
 -->
<!-- Title: DoorStates Pages: 1 -->
<svg width="458pt" height="144pt"
 viewBox="0.00 0.00 458.00 144.00" xmlns="http://www.w3.org/2000/svg" xmlns:xlink="http://www.w3.org/1999/xlink">
<g id="graph0" class="graph" transform="scale(1 1) rotate(0) translate(4 140)">
<title>DoorStates</title>
<polygon fill="white" stroke="white" points="-4,5 -4,-140 455,-140 455,5 -4,5"/>
<!-- PARTITIONING -->
<g id="node1" class="node"><title>PARTITIONING</title>
<polygon fill="none" stroke="black" points="26.5,-99 26.5,-135 109.5,-135 109.5,-99 26.5,-99"/>
<text text-anchor="middle" x="68" y="-113.3" font-family="Times,serif" font-size="14.00">Partitioning</text>
</g>
<!-- ALLOCATION -->
<g id="node3" class="node"><title>ALLOCATION</title>
<polygon fill="none" stroke="black" points="0,-0.5 0,-61.5 88,-61.5 88,-0.5 0,-0.5"/>
<text text-anchor="middle" x="44" y="-46.3" font-family="Times,serif" font-size="14.00">Allocation</text>
<polyline fill="none" stroke="black" points="0,-38.5 88,-38.5 "/>
<text text-anchor="middle" x="44" y="-23.3" font-family="Times,serif" font-size="14.00">Select HW</text>
<text text-anchor="middle" x="44" y="-8.3" font-family="Times,serif" font-size="14.00"> components</text>
</g>
<!-- PARTITIONING&#45;&gt;ALLOCATION -->
<g id="edge1" class="edge"><title>PARTITIONING&#45;&gt;ALLOCATION</title>
<path fill="none" stroke="black" d="M63.0272,-98.5951C59.9791,-87.927 55.9971,-73.99 52.4641,-61.6245"/>
</g>
<!-- BINDING -->
<g id="node4" class="node"><title>BINDING</title>
<polygon fill="none" stroke="black" points="106.5,-0.5 106.5,-61.5 265.5,-61.5 265.5,-0.5 106.5,-0.5"/>
<text text-anchor="middle" x="186" y="-46.3" font-family="Times,serif" font-size="14.00">Binding</text>
<polyline fill="none" stroke="black" points="106.5,-38.5 265.5,-38.5 "/>
<text text-anchor="middle" x="186" y="-23.3" font-family="Times,serif" font-size="14.00">Assign functions (SW) to</text>
<text text-anchor="middle" x="186" y="-8.3" font-family="Times,serif" font-size="14.00"> components (HW)</text>
</g>
<!-- PARTITIONING&#45;&gt;BINDING -->
<g id="edge2" class="edge"><title>PARTITIONING&#45;&gt;BINDING</title>
<path fill="none" stroke="black" d="M92.1638,-98.7986C107.133,-88.1429 126.762,-74.1694 144.197,-61.7584"/>
</g>
<!-- MAPPING -->
<g id="node2" class="node"><title>MAPPING</title>
<polygon fill="none" stroke="black" points="242.5,-99 242.5,-135 309.5,-135 309.5,-99 242.5,-99"/>
<text text-anchor="middle" x="276" y="-113.3" font-family="Times,serif" font-size="14.00">Mapping</text>
</g>
<!-- MAPPING&#45;&gt;BINDING -->
<g id="edge3" class="edge"><title>MAPPING&#45;&gt;BINDING</title>
<path fill="none" stroke="black" d="M257.352,-98.5951C245.922,-87.927 230.989,-73.99 217.741,-61.6245"/>
</g>
<!-- SCHEDULING -->
<g id="node5" class="node"><title>SCHEDULING</title>
<polygon fill="none" stroke="black" points="283.5,-0.5 283.5,-61.5 450.5,-61.5 450.5,-0.5 283.5,-0.5"/>
<text text-anchor="middle" x="367" y="-46.3" font-family="Times,serif" font-size="14.00">Scheduling</text>
<polyline fill="none" stroke="black" points="283.5,-38.5 450.5,-38.5 "/>
<text text-anchor="middle" x="367" y="-23.3" font-family="Times,serif" font-size="14.00">Determine execution order</text>
<text text-anchor="middle" x="367" y="-8.3" font-family="Times,serif" font-size="14.00"> of code</text>
</g>
<!-- MAPPING&#45;&gt;SCHEDULING -->
<g id="edge4" class="edge"><title>MAPPING&#45;&gt;SCHEDULING</title>
<path fill="none" stroke="black" d="M294.855,-98.5951C306.412,-87.927 321.511,-73.99 334.907,-61.6245"/>
</g>
</g>
</svg>
