<?xml version="1.0" encoding="UTF-8" standalone="no"?>
<!DOCTYPE svg PUBLIC "-//W3C//DTD SVG 1.1//EN"
 "http://www.w3.org/Graphics/SVG/1.1/DTD/svg11.dtd">
<!-- Generated by graphviz version 2.38.0 (20140413.2041)
 -->
<!-- Title: DoorStates Pages: 1 -->
<svg width="502pt" height="329pt"
 viewBox="0.00 0.00 501.50 329.00" xmlns="http://www.w3.org/2000/svg" xmlns:xlink="http://www.w3.org/1999/xlink">
<g id="graph0" class="graph" transform="scale(1 1) rotate(0) translate(4 325)">
<title>DoorStates</title>
<polygon fill="white" stroke="none" points="-4,4 -4,-325 497.5,-325 497.5,4 -4,4"/>
<!-- JUMP -->
<g id="node1" class="node"><title>JUMP</title>
<polygon fill="none" stroke="black" points="179,-284.5 179,-320.5 277,-320.5 277,-284.5 179,-284.5"/>
<text text-anchor="middle" x="228" y="-298.8" font-family="Times New Roman,serif" font-size="14.00">Jump (branch)</text>
</g>
<!-- CONDITIONAL -->
<g id="node2" class="node"><title>CONDITIONAL</title>
<polygon fill="none" stroke="black" points="105,-171.5 105,-247.5 213,-247.5 213,-171.5 105,-171.5"/>
<text text-anchor="middle" x="159" y="-232.3" font-family="Times New Roman,serif" font-size="14.00">Conditional</text>
<polyline fill="none" stroke="black" points="105,-224.5 213,-224.5 "/>
<text text-anchor="middle" x="159" y="-209.3" font-family="Times New Roman,serif" font-size="14.00">&#45; short</text>
<text text-anchor="middle" x="159" y="-194.3" font-family="Times New Roman,serif" font-size="14.00">&#45; direct</text>
<text text-anchor="middle" x="159" y="-179.3" font-family="Times New Roman,serif" font-size="14.00"> &#45; relative (to IP)</text>
</g>
<!-- JUMP&#45;&gt;CONDITIONAL -->
<g id="edge1" class="edge"><title>JUMP&#45;&gt;CONDITIONAL</title>
<path fill="none" stroke="black" d="M215.022,-284.384C207.136,-273.984 196.752,-260.289 187.07,-247.519"/>
</g>
<!-- UNCONDITIONAL -->
<g id="node3" class="node"><title>UNCONDITIONAL</title>
<polygon fill="none" stroke="black" points="231.5,-191.5 231.5,-227.5 364.5,-227.5 364.5,-191.5 231.5,-191.5"/>
<text text-anchor="middle" x="298" y="-205.8" font-family="Times New Roman,serif" font-size="14.00">Unconditional (JMP)</text>
</g>
<!-- JUMP&#45;&gt;UNCONDITIONAL -->
<g id="edge2" class="edge"><title>JUMP&#45;&gt;UNCONDITIONAL</title>
<path fill="none" stroke="black" d="M241.166,-284.384C253.681,-268.114 272.397,-243.784 284.893,-227.54"/>
</g>
<!-- DIRECT -->
<g id="node4" class="node"><title>DIRECT</title>
<polygon fill="none" stroke="black" points="200,-98.5 200,-134.5 254,-134.5 254,-98.5 200,-98.5"/>
<text text-anchor="middle" x="227" y="-112.8" font-family="Times New Roman,serif" font-size="14.00">Direct</text>
</g>
<!-- UNCONDITIONAL&#45;&gt;DIRECT -->
<g id="edge3" class="edge"><title>UNCONDITIONAL&#45;&gt;DIRECT</title>
<path fill="none" stroke="black" d="M284.645,-191.384C271.952,-175.114 252.969,-150.784 240.295,-134.54"/>
</g>
<!-- INDIRECT -->
<g id="node8" class="node"><title>INDIRECT</title>
<polygon fill="none" stroke="black" points="339.5,-98.5 339.5,-134.5 398.5,-134.5 398.5,-98.5 339.5,-98.5"/>
<text text-anchor="middle" x="369" y="-112.8" font-family="Times New Roman,serif" font-size="14.00">Indirect</text>
</g>
<!-- UNCONDITIONAL&#45;&gt;INDIRECT -->
<g id="edge4" class="edge"><title>UNCONDITIONAL&#45;&gt;INDIRECT</title>
<path fill="none" stroke="black" d="M311.355,-191.384C324.048,-175.114 343.031,-150.784 355.705,-134.54"/>
</g>
<!-- DIRECT_SHORT -->
<g id="node5" class="node"><title>DIRECT_SHORT</title>
<polygon fill="none" stroke="black" points="0,-0.5 0,-61.5 104,-61.5 104,-0.5 0,-0.5"/>
<text text-anchor="middle" x="52" y="-46.3" font-family="Times New Roman,serif" font-size="14.00">Short</text>
<polyline fill="none" stroke="black" points="0,-38.5 104,-38.5 "/>
<text text-anchor="middle" x="52" y="-23.3" font-family="Times New Roman,serif" font-size="14.00">&#45; relative (to IP)</text>
<text text-anchor="middle" x="52" y="-8.3" font-family="Times New Roman,serif" font-size="14.00">8&#45;bit</text>
</g>
<!-- DIRECT&#45;&gt;DIRECT_SHORT -->
<g id="edge5" class="edge"><title>DIRECT&#45;&gt;DIRECT_SHORT</title>
<path fill="none" stroke="black" d="M199.754,-102.884C176.617,-92.1297 142.559,-76.2031 113,-62 110.128,-60.6199 107.183,-59.1973 104.213,-57.7564"/>
</g>
<!-- DIRECT_NEAR -->
<g id="node6" class="node"><title>DIRECT_NEAR</title>
<polygon fill="none" stroke="black" points="122,-0.5 122,-61.5 226,-61.5 226,-0.5 122,-0.5"/>
<text text-anchor="middle" x="174" y="-46.3" font-family="Times New Roman,serif" font-size="14.00">Near</text>
<polyline fill="none" stroke="black" points="122,-38.5 226,-38.5 "/>
<text text-anchor="middle" x="174" y="-23.3" font-family="Times New Roman,serif" font-size="14.00">&#45; relative (to IP)</text>
<text text-anchor="middle" x="174" y="-8.3" font-family="Times New Roman,serif" font-size="14.00">16&#45;bit</text>
</g>
<!-- DIRECT&#45;&gt;DIRECT_NEAR -->
<g id="edge6" class="edge"><title>DIRECT&#45;&gt;DIRECT_NEAR</title>
<path fill="none" stroke="black" d="M216.018,-98.1987C209.348,-87.6896 200.652,-73.9894 192.903,-61.7807"/>
</g>
<!-- DIRECT_FAR -->
<g id="node7" class="node"><title>DIRECT_FAR</title>
<polygon fill="none" stroke="black" points="244.5,-0.5 244.5,-61.5 315.5,-61.5 315.5,-0.5 244.5,-0.5"/>
<text text-anchor="middle" x="280" y="-46.3" font-family="Times New Roman,serif" font-size="14.00">Far</text>
<polyline fill="none" stroke="black" points="244.5,-38.5 315.5,-38.5 "/>
<text text-anchor="middle" x="280" y="-23.3" font-family="Times New Roman,serif" font-size="14.00">&#45; absolute</text>
<text text-anchor="middle" x="280" y="-8.3" font-family="Times New Roman,serif" font-size="14.00">32&#45;bit</text>
</g>
<!-- DIRECT&#45;&gt;DIRECT_FAR -->
<g id="edge7" class="edge"><title>DIRECT&#45;&gt;DIRECT_FAR</title>
<path fill="none" stroke="black" d="M237.982,-98.1987C244.652,-87.6896 253.348,-73.9894 261.097,-61.7807"/>
</g>
<!-- INDIRECT_NEAR -->
<g id="node9" class="node"><title>INDIRECT_NEAR</title>
<polygon fill="none" stroke="black" points="333.5,-0.5 333.5,-61.5 404.5,-61.5 404.5,-0.5 333.5,-0.5"/>
<text text-anchor="middle" x="369" y="-46.3" font-family="Times New Roman,serif" font-size="14.00">Near</text>
<polyline fill="none" stroke="black" points="333.5,-38.5 404.5,-38.5 "/>
<text text-anchor="middle" x="369" y="-23.3" font-family="Times New Roman,serif" font-size="14.00">&#45; absolute</text>
<text text-anchor="middle" x="369" y="-8.3" font-family="Times New Roman,serif" font-size="14.00">16&#45;bit</text>
</g>
<!-- INDIRECT&#45;&gt;INDIRECT_NEAR -->
<g id="edge8" class="edge"><title>INDIRECT&#45;&gt;INDIRECT_NEAR</title>
<path fill="none" stroke="black" d="M369,-98.1987C369,-87.6896 369,-73.9894 369,-61.7807"/>
</g>
<!-- INDIRECT_FAR -->
<g id="node10" class="node"><title>INDIRECT_FAR</title>
<polygon fill="none" stroke="black" points="422.5,-0.5 422.5,-61.5 493.5,-61.5 493.5,-0.5 422.5,-0.5"/>
<text text-anchor="middle" x="458" y="-46.3" font-family="Times New Roman,serif" font-size="14.00">Far</text>
<polyline fill="none" stroke="black" points="422.5,-38.5 493.5,-38.5 "/>
<text text-anchor="middle" x="458" y="-23.3" font-family="Times New Roman,serif" font-size="14.00">&#45; absolute</text>
<text text-anchor="middle" x="458" y="-8.3" font-family="Times New Roman,serif" font-size="14.00">32&#45;bit</text>
</g>
<!-- INDIRECT&#45;&gt;INDIRECT_FAR -->
<g id="edge9" class="edge"><title>INDIRECT&#45;&gt;INDIRECT_FAR</title>
<path fill="none" stroke="black" d="M387.441,-98.1987C398.642,-87.6896 413.245,-73.9894 426.258,-61.7807"/>
</g>
</g>
</svg>
